<svg id="Capa_1" data-name="Capa 1" xmlns="http://www.w3.org/2000/svg" viewBox="0 0 358.32 112.88"><title>Figura1</title><rect width="358.32" height="112.88" style="fill:#fff"/><rect x="35.66" y="38.28" width="75.2" height="39.5" style="fill:#e85524"/><rect x="130.86" y="29.72" width="99.49" height="55.46" style="fill:#d67a61"/><rect x="251.47" y="39.28" width="78.15" height="39.5" style="fill:#e85524"/><path d="M59.28,61.12v-6h1.79c2,0,2.54,1.29,2.54,3s-.55,3-2.54,3Zm.9-.82h.91c1.2,0,1.58-.87,1.58-2.17S62.29,56,61.09,56h-.91Z" style="fill:#fff"/><path d="M67.52,59.66H65.6l-.43,1.46h-1l1.9-6.06H67l1.9,6.06h-1Zm-1-3.39-.77,2.66h1.53Z" style="fill:#fff"/><path d="M71.79,56v5.17h-.9V56H69.33v-.82h4V56Z" style="fill:#fff"/><path d="M74,58.13c0-1.7.39-3.1,2.31-3.1s2.31,1.4,2.31,3.1-.38,3.09-2.31,3.09S74,59.82,74,58.13Zm.92,0c0,1.42.26,2.27,1.39,2.27s1.39-.85,1.39-2.27-.25-2.28-1.39-2.28S74.89,56.7,74.89,58.13Z" style="fill:#fff"/><path d="M83.42,59.31c0,1.13-.67,1.91-2.28,1.91a4.74,4.74,0,0,1-1.78-.34V60a4.17,4.17,0,0,0,1.72.39c1.08,0,1.4-.44,1.4-1s-.28-.83-1.08-.93c-1.47-.19-2-.58-2-1.67,0-.88.5-1.74,2.13-1.74a3.77,3.77,0,0,1,1.62.29v.87a4,4,0,0,0-1.57-.31c-.94,0-1.26.38-1.26.89s.37.76,1.16.87C82.69,57.81,83.42,58.09,83.42,59.31Z" style="fill:#fff"/><path d="M265.12,62.12v-6h.9v6Z" style="fill:#fff"/><path d="M270.59,62.12,268,57.86l0,4.26h-.89v-6h.82l2.61,4.26,0-4.26h.89v6Z" style="fill:#fff"/><path d="M275.71,59.46h-2.43v2.66h-.89v-6H276V57h-2.69v1.69h2.43Z" style="fill:#fff"/><path d="M276.66,59.12c0-1.69.38-3.09,2.31-3.09s2.31,1.4,2.31,3.09-.38,3.1-2.31,3.1S276.66,60.82,276.66,59.12Zm.92,0c0,1.43.26,2.28,1.39,2.28s1.39-.85,1.39-2.28-.25-2.27-1.39-2.27S277.58,57.7,277.58,59.12Z" style="fill:#fff"/><path d="M283.07,62.12h-.89v-6h1.95c1.55,0,2.05.69,2.05,1.78a1.47,1.47,0,0,1-1,1.6l1.26,2.61h-1l-1.09-2.43h-1.25Zm0-3.25h1.19c.83,0,.94-.47.94-1s-.11-1-.94-1h-1.19Z" style="fill:#fff"/><path d="M290.34,61.3h-.84L288,57.61l0,4.51h-.89v-6h1.15l1.62,4.08,1.62-4.08h1.16v6h-.9l0-4.51Z" style="fill:#fff"/><path d="M296.71,60.66h-1.92l-.43,1.46h-1l1.9-6.07h.91l1.9,6.07h-1Zm-1-3.39L295,59.92h1.53Z" style="fill:#fff"/><path d="M301.19,56a3.33,3.33,0,0,1,1.4.26v.85a3.25,3.25,0,0,0-1.35-.27c-1.14,0-1.61.78-1.61,2.25s.47,2.26,1.61,2.26a3.25,3.25,0,0,0,1.35-.27V62a3.33,3.33,0,0,1-1.4.26c-1.78,0-2.47-1.13-2.47-3.1S299.41,56,301.19,56Z" style="fill:#fff"/><path d="M303.62,62.12v-6h.89v6Z" style="fill:#fff"/><path d="M305.54,59.12c0-1.69.38-3.09,2.31-3.09s2.31,1.4,2.31,3.09-.38,3.1-2.31,3.1S305.54,60.82,305.54,59.12Zm.92,0c0,1.43.25,2.28,1.39,2.28s1.39-.85,1.39-2.28-.26-2.27-1.39-2.27S306.46,57.7,306.46,59.12Zm1-3.35.47-.88H309l-.79.88Z" style="fill:#fff"/><path d="M314.53,62.12l-2.61-4.26,0,4.26h-.89v-6h.82l2.6,4.26,0-4.26h.89v6Z" style="fill:#fff"/><path d="M157.42,50.84h-.9v-6h1.93c1.54,0,2.08.9,2.08,1.88s-.54,1.87-2.08,1.87h-1Zm0-3.06h1.07a1.06,1.06,0,1,0,0-2.11h-1.07Z" style="fill:#fff"/><path d="M162.06,50.84h-.9v-6h2c1.55,0,2,.7,2,1.79a1.48,1.48,0,0,1-1,1.6l1.26,2.61h-1.05L163.3,48.4h-1.24Zm0-3.25h1.18c.83,0,.94-.48.94-1s-.11-1-.94-1h-1.18Z" style="fill:#fff"/><path d="M166.05,47.84c0-1.69.38-3.09,2.31-3.09s2.31,1.4,2.31,3.09-.38,3.1-2.31,3.1S166.05,49.54,166.05,47.84Zm.92,0c0,1.43.25,2.28,1.39,2.28s1.39-.85,1.39-2.28-.25-2.28-1.39-2.28S167,46.42,167,47.84Z" style="fill:#fff"/><path d="M174,44.75a3.46,3.46,0,0,1,1.41.25v.86a3.32,3.32,0,0,0-1.35-.27c-1.15,0-1.61.77-1.61,2.25s.46,2.26,1.61,2.26a3.17,3.17,0,0,0,1.35-.28v.86a3.42,3.42,0,0,1-1.41.26c-1.77,0-2.47-1.13-2.47-3.1S172.19,44.75,174,44.75Z" style="fill:#fff"/><path d="M179.66,48.15h-2.5V50h2.75v.82h-3.65v-6h3.65v.83h-2.75v1.65h2.5Z" style="fill:#fff"/><path d="M184.71,49c0,1.13-.67,1.91-2.28,1.91a4.5,4.5,0,0,1-1.77-.35V49.7a4.13,4.13,0,0,0,1.72.39c1.08,0,1.4-.44,1.4-1s-.28-.82-1.09-.93c-1.46-.18-2-.57-2-1.67,0-.88.49-1.73,2.12-1.73a3.71,3.71,0,0,1,1.63.29v.87a4,4,0,0,0-1.58-.31c-.93,0-1.25.38-1.25.89s.37.76,1.16.86C184,47.52,184.71,47.8,184.71,49Z" style="fill:#fff"/><path d="M185.47,47.84c0-1.69.38-3.09,2.31-3.09s2.31,1.4,2.31,3.09-.39,3.1-2.31,3.1S185.47,49.54,185.47,47.84Zm.91,0c0,1.43.26,2.28,1.4,2.28s1.39-.85,1.39-2.28-.26-2.28-1.39-2.28S186.38,46.42,186.38,47.84Z" style="fill:#fff"/><path d="M192.59,50.84v-6h1.78c2,0,2.54,1.3,2.54,3s-.55,3-2.54,3Zm.89-.82h.91c1.2,0,1.59-.88,1.59-2.18s-.39-2.17-1.59-2.17h-.91Z" style="fill:#fff"/><path d="M201.18,48.15h-2.5V50h2.75v.82h-3.64v-6h3.64v.83h-2.75v1.65h2.5Z" style="fill:#fff"/><path d="M147.35,55.27v5.17h-.9V55.27h-1.56v-.83h4v.83Z" style="fill:#fff"/><path d="M150.51,60.44h-.9v-6h1.95c1.56,0,2.05.7,2.05,1.79a1.48,1.48,0,0,1-1,1.6l1.25,2.61h-1L151.76,58h-1.25Zm0-3.25h1.18c.83,0,.95-.48.95-1s-.12-1-.95-1h-1.18Z" style="fill:#fff"/><path d="M157.61,59h-1.92l-.42,1.46h-1l1.91-6.07h.91l1.9,6.07h-1Zm-1-3.39-.77,2.65h1.54Z" style="fill:#fff"/><path d="M163.17,60.44l-2.6-4.26,0,4.26h-.89v-6h.82l2.6,4.27,0-4.27H164v6Z" style="fill:#fff"/><path d="M168.89,58.63c0,1.13-.67,1.91-2.28,1.91a4.5,4.5,0,0,1-1.77-.35V59.3a4.13,4.13,0,0,0,1.72.39c1.08,0,1.4-.44,1.4-1s-.28-.82-1.09-.93c-1.46-.18-2-.57-2-1.67,0-.88.49-1.73,2.12-1.73a3.71,3.71,0,0,1,1.63.29v.87A4,4,0,0,0,167,55.2c-.93,0-1.25.38-1.25.89s.37.76,1.16.86C168.16,57.12,168.89,57.4,168.89,58.63Z" style="fill:#fff"/><path d="M173.05,57.78h-2.43v2.66h-.9v-6h3.59v.83h-2.69V57h2.43Z" style="fill:#fff"/><path d="M174,57.44c0-1.69.38-3.09,2.31-3.09s2.31,1.4,2.31,3.09-.38,3.1-2.31,3.1S174,59.14,174,57.44Zm.92,0c0,1.43.25,2.28,1.39,2.28s1.39-.85,1.39-2.28-.26-2.28-1.39-2.28S174.92,56,174.92,57.44Z" style="fill:#fff"/><path d="M180.41,60.44h-.89v-6h1.95c1.55,0,2,.7,2,1.79a1.47,1.47,0,0,1-1,1.6l1.25,2.61h-1L181.66,58h-1.25Zm0-3.25h1.19c.83,0,.94-.48.94-1s-.11-1-.94-1h-1.19Z" style="fill:#fff"/><path d="M187.68,59.62h-.84l-1.5-3.69,0,4.51h-.9v-6h1.16l1.62,4.09,1.62-4.09H190v6h-.89l0-4.51Z" style="fill:#fff"/><path d="M194,59h-1.91l-.43,1.46h-1l1.9-6.07h.91l1.9,6.07h-1Zm-1-3.39-.76,2.65h1.53Z" style="fill:#fff"/><path d="M198.52,54.35a3.42,3.42,0,0,1,1.41.25v.86a3.29,3.29,0,0,0-1.35-.27c-1.14,0-1.61.77-1.61,2.25s.47,2.26,1.61,2.26a3.14,3.14,0,0,0,1.35-.28v.86a3.38,3.38,0,0,1-1.41.26c-1.77,0-2.47-1.13-2.47-3.1S196.75,54.35,198.52,54.35Z" style="fill:#fff"/><path d="M201,60.44v-6h.89v6Z" style="fill:#fff"/><path d="M202.88,57.44c0-1.69.38-3.09,2.31-3.09s2.31,1.4,2.31,3.09-.39,3.1-2.31,3.1S202.88,59.14,202.88,57.44Zm.92,0c0,1.43.25,2.28,1.39,2.28s1.39-.85,1.39-2.28-.26-2.28-1.39-2.28S203.8,56,203.8,57.44Zm1-3.36.47-.88h1.07l-.79.88Z" style="fill:#fff"/><path d="M211.87,60.44l-2.61-4.26,0,4.26h-.88v-6h.81l2.61,4.27,0-4.27h.89v6Z" style="fill:#fff"/><path d="M153,71.69a8.84,8.84,0,0,1,0-8.17h.9a8.77,8.77,0,0,0,0,8.17Z" style="fill:#fff"/><path d="M156.24,69.34a2.91,2.91,0,0,0,1.07-.18l-.09.78a3.11,3.11,0,0,1-1.13.2c-1.42,0-1.74-.85-1.59-2.1s.69-2.09,2.1-2.09a2.54,2.54,0,0,1,1.08.2l-.1.77a2.52,2.52,0,0,0-1-.18c-.77,0-1.06.53-1.16,1.3S155.46,69.34,156.24,69.34Z" style="fill:#fff"/><path d="M158.1,68c.15-1.23.61-2.09,2-2.09s1.67.86,1.52,2.09-.61,2.1-2,2.1S158,69.27,158.1,68Zm2.64,0c.11-.85.06-1.34-.7-1.34s-.94.49-1,1.34-.05,1.34.71,1.34S160.64,68.9,160.74,68Z" style="fill:#fff"/><path d="M164.62,70,165,67.3c0-.41-.14-.59-.56-.59a2,2,0,0,0-1,.23l-.38,3.1h-.89l.49-4h.52l.11.32a2.52,2.52,0,0,1,1.34-.41c1,0,1.32.5,1.22,1.27L165.52,70Z" style="fill:#fff"/><path d="M166.5,68c.15-1.23.61-2.09,2-2.09s1.67.86,1.52,2.09-.61,2.1-2,2.1S166.35,69.27,166.5,68Zm2.64,0c.11-.85.06-1.34-.7-1.34s-.94.49-1,1.34-.05,1.34.71,1.34S169,68.9,169.14,68Z" style="fill:#fff"/><path d="M172.45,69.34a2.91,2.91,0,0,0,1.07-.18l-.1.78a3,3,0,0,1-1.12.2c-1.42,0-1.75-.85-1.59-2.1s.68-2.09,2.1-2.09a2.57,2.57,0,0,1,1.08.2l-.1.77a2.52,2.52,0,0,0-1-.18c-.78,0-1.06.53-1.16,1.3S171.67,69.34,172.45,69.34Z" style="fill:#fff"/><path d="M174.38,69.06l.37-3h.89l-.37,3c0,.22,0,.3.3.3l-.09.73a.83.83,0,0,1-.18,0C174.58,70.1,174.29,69.74,174.38,69.06Zm1-4.78a.58.58,0,1,1,0,1.16.58.58,0,1,1,0-1.16Z" style="fill:#fff"/><path d="M181.18,67.22c0-.38-.15-.51-.5-.51a1.85,1.85,0,0,0-.9.24,2.22,2.22,0,0,1,0,.44L179.43,70h-.89l.34-2.82c.05-.38-.14-.51-.5-.51a1.84,1.84,0,0,0-.88.23l-.37,3.1h-.9l.49-4h.53l.1.32a2.35,2.35,0,0,1,1.26-.41c.53,0,.84.15,1,.4a2.49,2.49,0,0,1,1.33-.4c.94,0,1.26.51,1.17,1.27L181.73,70h-.89Z" style="fill:#fff"/><path d="M182.79,69.06l.36-3h.9l-.37,3c0,.22,0,.3.3.3l-.09.73a.83.83,0,0,1-.18,0C183,70.1,182.7,69.74,182.79,69.06Zm1-4.78a.58.58,0,1,1-.59.58A.59.59,0,0,1,183.75,64.28Z" style="fill:#fff"/><path d="M185.63,68.37c0,.6.12,1,.93,1a3.43,3.43,0,0,0,1.3-.24l-.09.77a4,4,0,0,1-1.44.25c-1.34,0-1.72-.8-1.56-2.1s.73-2.09,2-2.09,1.56.55,1.47,1.24-.59,1.18-1.77,1.18Zm1-.62c.48,0,.79-.16.84-.52s-.24-.51-.72-.51c-.65,0-.88.43-1,1Z" style="fill:#fff"/><path d="M191.17,70l.33-2.74c.05-.41-.13-.59-.56-.59a2,2,0,0,0-.95.23l-.37,3.1h-.9l.49-4h.53l.1.32a2.52,2.52,0,0,1,1.34-.41c1,0,1.32.5,1.23,1.27L192.06,70Z" style="fill:#fff"/><path d="M195.2,70.08a3,3,0,0,1-.5.06c-.89,0-1.36-.39-1.26-1.25l.26-2.09H193l.07-.55.75-.21.12-1,.92-.25-.14,1.2h1.13l-.1.76h-1.13l-.24,2c0,.4.13.59.59.59a1.78,1.78,0,0,0,.35,0Z" style="fill:#fff"/><path d="M196.08,68c.15-1.23.61-2.09,2-2.09s1.67.86,1.52,2.09-.61,2.1-2,2.1S195.93,69.27,196.08,68Zm2.65,0c.1-.85.05-1.34-.71-1.34s-.93.49-1,1.34,0,1.34.72,1.34S198.62,68.9,198.73,68Z" style="fill:#fff"/><path d="M201.88,67.64c1.19.11,1.46.47,1.37,1.21s-.59,1.29-1.87,1.29a3.58,3.58,0,0,1-1.29-.22l.09-.77a3.25,3.25,0,0,0,1.17.23c.64,0,1-.15,1-.5s-.07-.45-.6-.49c-1.19-.11-1.45-.48-1.36-1.17S201,66,202.18,66a2.78,2.78,0,0,1,1.21.2l-.1.77a3,3,0,0,0-1.19-.22c-.47,0-.78.13-.83.49S201.37,67.59,201.88,67.64Z" style="fill:#fff"/><path d="M203.92,71.69a8.77,8.77,0,0,0,0-8.17h.9a8.84,8.84,0,0,1,0,8.17Z" style="fill:#fff"/><polygon points="127.4 58.03 118.69 48.83 118.69 53.43 114.31 53.43 114.31 62.63 118.69 62.63 118.69 67.23 127.4 58.03" style="fill:#919191"/><polygon points="247.47 60.04 238.77 50.84 238.77 55.44 234.39 55.44 234.39 64.64 238.77 64.64 238.77 69.24 247.47 60.04" style="fill:#919191"/></svg>