<svg id="Capa_1" data-name="Capa 1" xmlns="http://www.w3.org/2000/svg" viewBox="0 0 790 583"><title>tabla-1</title><rect width="790" height="583" style="fill:#fff"/><rect x="26" y="33" width="230.5" height="70" style="fill:#e75422;stroke:#e75422;stroke-miterlimit:10;stroke-width:3px"/><rect x="25.5" y="109.5" width="231" height="67.08" style="fill:#fff;stroke:#d67a61;stroke-miterlimit:10;stroke-width:3px"/><path d="M51.19,152.36,44,140.64l.06,11.72H41.64v-16.5h2.25l7.17,11.73L51,135.86h2.45v16.5Z"/><path d="M58.36,141.36v7.55c0,1.12.57,1.63,1.74,1.63a5,5,0,0,0,2.53-.64v-8.54H65.1v11H63.64l-.39-.88a6.37,6.37,0,0,1-3.57,1.15c-2.79,0-3.78-1.39-3.78-3.5v-7.77Z"/><path d="M80.19,144.6c0-1-.6-1.41-1.56-1.41a4.32,4.32,0,0,0-2.38.68,11.59,11.59,0,0,1,.07,1.21v7.28H73.85V144.6c0-1-.57-1.41-1.56-1.41a4.43,4.43,0,0,0-2.31.64v8.53H67.51v-11H69l.39.88a5.79,5.79,0,0,1,3.33-1.14,3.14,3.14,0,0,1,2.81,1.1A6.24,6.24,0,0,1,79,141.1c2.6,0,3.63,1.41,3.63,3.5v7.76H80.19Z"/><path d="M89.56,141.1c3.87,0,4.49,2.55,4.49,5.59,0,.37,0,.72,0,1.07H87.16c0,1.66.64,2.73,2.88,2.73a8.67,8.67,0,0,0,3.5-.66V152a10.34,10.34,0,0,1-3.87.68c-3.67,0-5-2.2-5-5.77S86,141.1,89.56,141.1Zm-2.4,5h4.4c0-1.5-.09-2.82-2-2.82S87.25,144.4,87.16,146.05Zm1.37-5.79,1.27-4.4h3l-2.18,4.4Z"/><path d="M102.69,143.34a4.18,4.18,0,0,0-1.21-.13,5.37,5.37,0,0,0-2.81.66v8.49H96.2v-11h1.45l.4.88a5.59,5.59,0,0,1,3.48-1.14,5.24,5.24,0,0,1,1.16.13Z"/><path d="M105.71,136.5a1.61,1.61,0,1,1-1.61,1.61A1.61,1.61,0,0,1,105.71,136.5Zm-1.24,13.16v-8.3h2.47v8.27c0,.62.22.84.92.84v2a2.42,2.42,0,0,1-.48.05C105.38,152.52,104.47,151.55,104.47,149.66Z"/><path d="M114.84,150.45a7.32,7.32,0,0,0,2.88-.51v2.14a7.71,7.71,0,0,1-3,.55c-3.89,0-5.08-2.34-5.08-5.77s1.19-5.76,5.08-5.76a7.54,7.54,0,0,1,3,.55v2.13a7.34,7.34,0,0,0-2.88-.5c-2.14,0-2.75,1.45-2.75,3.58S112.7,150.45,114.84,150.45Z"/><path d="M119.5,146.86c0-3.39,1-5.76,4.88-5.76s4.89,2.37,4.89,5.76-1,5.77-4.89,5.77S119.5,150.25,119.5,146.86Zm7.28,0c0-2.35-.31-3.69-2.4-3.69s-2.39,1.34-2.39,3.69.3,3.7,2.39,3.7S126.78,149.22,126.78,146.86Z"/><path d="M135.32,145.76c3.3.29,4.16,1.28,4.16,3.32s-1.17,3.55-4.69,3.55a10.32,10.32,0,0,1-3.63-.6v-2.11a9.43,9.43,0,0,0,3.28.62c1.76,0,2.62-.4,2.62-1.37,0-.81-.36-1.23-1.83-1.36-3.32-.29-4.14-1.32-4.14-3.21s1.24-3.5,4.47-3.5a8.3,8.3,0,0,1,3.41.55v2.13a9.27,9.27,0,0,0-3.37-.61c-1.29,0-2.11.37-2.11,1.36C133.49,145.3,133.89,145.63,135.32,145.76Z"/><rect x="262.79" y="33" width="492.71" height="70" style="fill:#e75422;stroke:#e75422;stroke-miterlimit:10;stroke-width:3px"/><rect x="262.5" y="109.5" width="492.5" height="67.08" style="fill:#fff;stroke:#d67a61;stroke-miterlimit:10;stroke-width:3px"/><path d="M49.54,63.07V76.36H46V63.07H42V59.86H53.52v3.21Z" style="fill:#fff"/><path d="M56.27,60.08a2.09,2.09,0,0,1,0,4.18,2.09,2.09,0,1,1,0-4.18Zm2.64,16.37a5.88,5.88,0,0,1-1,.09c-1.89,0-3.39-1-3.39-3.1V65.36H58V73c0,.42.2.66.9.66Z" style="fill:#fff"/><path d="M62.56,65.36l.6.88a5.07,5.07,0,0,1,3.56-1.19c2.86,0,4.27,1.76,4.27,5.81s-1.41,5.81-4.27,5.81A5.26,5.26,0,0,1,64,76v5.89H60.45V65.36Zm1.41,8a3.07,3.07,0,0,0,1.56.46c1.63,0,2-1.1,2-3s-.35-2.92-2-2.92A3.07,3.07,0,0,0,64,68.4Z" style="fill:#fff"/><path d="M72.09,70.86c0-3.43,1.1-5.81,5.17-5.81s5.17,2.38,5.17,5.81-1.1,5.81-5.17,5.81S72.09,74.29,72.09,70.86Zm3.52,0c0,2.2.44,3,1.65,3s1.65-.79,1.65-3-.44-3-1.65-3S75.61,68.66,75.61,70.86Z" style="fill:#fff"/><path d="M92.2,68.57a9.72,9.72,0,0,0-3.55-.7c-1,0-1.54.22-1.54.77s.38.7,1.1.77c3.48.31,4.45,1.23,4.45,3.52,0,2.11-1.26,3.74-5,3.74a10,10,0,0,1-4-.7V73a10.67,10.67,0,0,0,3.92.83c1.12,0,1.63-.22,1.63-.77s-.38-.7-1.11-.77c-3.47-.3-4.44-1.23-4.44-3.52s1.45-3.74,4.84-3.74a8.74,8.74,0,0,1,3.68.58Z" style="fill:#fff"/><path d="M106.69,76.36l-.59-.88a5.1,5.1,0,0,1-3.57,1.19c-2.86,0-4.26-1.76-4.26-5.81s1.4-5.81,4.26-5.81a5.2,5.2,0,0,1,2.76.71v-5.9h3.52v16.5Zm-1.4-8a3.08,3.08,0,0,0-1.57-.47c-1.63,0-2,1.08-2,3s.35,3,2,3a3.13,3.13,0,0,0,1.57-.46Z" style="fill:#fff"/><path d="M113.82,72c-.09,1.43.66,1.85,2.38,1.85a8.25,8.25,0,0,0,3.67-.73V75.9a11.25,11.25,0,0,1-4.14.77c-3.63,0-5.39-1.85-5.39-5.81s1.74-5.81,5.15-5.81c4.71,0,5,3.52,4.76,7Zm0-2.16H117c.19-1.21-.07-2.18-1.41-2.18S113.82,68.49,113.82,69.87Z" style="fill:#fff"/><path d="M126.4,76.36V59.86h5.35c5.59,0,7,3.57,7,8.25s-1.45,8.25-7,8.25Zm3.52-3.21h1.9c2.57,0,3.32-1.85,3.32-5s-.75-5-3.32-5h-1.9Z" style="fill:#fff"/><path d="M146.25,68.66c0-.5-.35-.77-1.3-.77a11,11,0,0,0-4,.84v-3a11.34,11.34,0,0,1,4-.73c4,0,4.71,1.7,4.71,4.16v7.15h-2.11l-.49-.83a4.82,4.82,0,0,1-3.23,1.14c-2.8,0-3.74-1.85-3.74-3.5,0-3,2.18-3.41,4.16-3.61l2-.19Zm-1.48,2.82c-1,.13-1.38.61-1.38,1.47a1.2,1.2,0,0,0,1.27,1.3,2.23,2.23,0,0,0,1.59-.53V71.28Z" style="fill:#fff"/><path d="M158.48,76.45a8.52,8.52,0,0,1-1.8.22c-3.08,0-4.25-1.3-4.25-3.89V68.29h-1.78V66l1.78-.49V63.21l3.52-1v3.1h2.73v2.93H156v4.2c0,.86.33,1.34,1.45,1.34a4.6,4.6,0,0,0,1.08-.13Z" style="fill:#fff"/><path d="M159.67,70.86c0-3.43,1.1-5.81,5.17-5.81S170,67.43,170,70.86s-1.1,5.81-5.17,5.81S159.67,74.29,159.67,70.86Zm3.52,0c0,2.2.44,3,1.65,3s1.65-.79,1.65-3-.44-3-1.65-3S163.19,68.66,163.19,70.86Z" style="fill:#fff"/><path d="M179.78,68.57a9.72,9.72,0,0,0-3.55-.7c-1,0-1.54.22-1.54.77s.38.7,1.1.77c3.48.31,4.45,1.23,4.45,3.52,0,2.11-1.26,3.74-5,3.74a10,10,0,0,1-4-.7V73a10.67,10.67,0,0,0,3.92.83c1.12,0,1.63-.22,1.63-.77s-.38-.7-1.1-.77c-3.48-.3-4.45-1.23-4.45-3.52s1.45-3.74,4.84-3.74a8.74,8.74,0,0,1,3.68.58Z" style="fill:#fff"/><rect x="25.5" y="183.5" width="230.5" height="67.08" style="fill:#fff;stroke:#d67a61;stroke-miterlimit:10;stroke-width:3px"/><path d="M50,222.34H44.7l-1.16,4H40.85l5.24-16.7H48.6l5.23,16.7H51.15ZM47.34,213l-2.11,7.3h4.22Z"/><path d="M55.81,223.66v-13.8h2.47v13.77c0,.62.22.84.92.84v2a2.42,2.42,0,0,1-.48.05C56.71,226.52,55.81,225.55,55.81,223.66Z"/><path d="M68.44,212a5,5,0,0,0-1.63-.22c-1.1,0-2,.42-2,1.67v2h3.1v2.09h-3.1v8.91H62.37v-8.91h-2v-1.52l2-.57v-2.18c0-2.35,1.32-3.58,4.26-3.58a5.75,5.75,0,0,1,1.81.26Z"/><path d="M73.15,217.21a9.36,9.36,0,0,0-3.44.66v-2.13a10,10,0,0,1,3.61-.64c3.61,0,4.45,1.58,4.45,3.91v7.35H76.32l-.4-.88a5.31,5.31,0,0,1-3.32,1.15c-2.84,0-3.79-1.76-3.79-3.52,0-2.38,1.54-3.39,4-3.59l2.46-.2v-.55C75.3,217.65,74.78,217.21,73.15,217.21ZM73,221.28c-1.1.13-1.74.55-1.74,1.69A1.48,1.48,0,0,0,73,224.6a4,4,0,0,0,2.35-.72V221Z"/><path d="M86.85,226.36v-7.54c0-1.13-.57-1.63-1.73-1.63a5,5,0,0,0-2.54.64v8.53H80.12v-11h1.45l.4.88a6.31,6.31,0,0,1,3.56-1.14c2.8,0,3.79,1.38,3.79,3.5v7.76Z"/><path d="M94,215.36v7.55c0,1.12.58,1.63,1.74,1.63a5,5,0,0,0,2.53-.64v-8.54h2.47v11H99.3l-.39-.88a6.35,6.35,0,0,1-3.57,1.15c-2.79,0-3.78-1.39-3.78-3.5v-7.77Z"/><path d="M115.85,218.6c0-1-.59-1.41-1.56-1.41a4.32,4.32,0,0,0-2.38.68,9.38,9.38,0,0,1,.07,1.21v7.28h-2.47V218.6c0-1-.57-1.41-1.56-1.41a4.43,4.43,0,0,0-2.31.64v8.53h-2.46v-11h1.45l.39.88a5.79,5.79,0,0,1,3.33-1.14,3.14,3.14,0,0,1,2.81,1.1,6.24,6.24,0,0,1,3.52-1.1c2.6,0,3.63,1.41,3.63,3.5v7.76h-2.46Z"/><path d="M125.22,215.1c3.87,0,4.49,2.55,4.49,5.59,0,.37,0,.72,0,1.07h-6.85c.05,1.66.64,2.73,2.88,2.73a8.67,8.67,0,0,0,3.5-.66V226a10.34,10.34,0,0,1-3.87.68c-3.67,0-5-2.2-5-5.77S121.63,215.1,125.22,215.1Zm-2.4,5h4.4c0-1.5-.09-2.82-2-2.82S122.91,218.4,122.82,220.05Zm1.37-5.79,1.27-4.4h3l-2.18,4.4Z"/><path d="M138.35,217.34a4.18,4.18,0,0,0-1.21-.13,5.4,5.4,0,0,0-2.81.66v8.49h-2.47v-11h1.46l.39.88a5.59,5.59,0,0,1,3.48-1.14,5.17,5.17,0,0,1,1.16.13Z"/><path d="M141.37,210.5a1.61,1.61,0,1,1-1.61,1.61A1.61,1.61,0,0,1,141.37,210.5Zm-1.23,13.16v-8.3h2.46v8.27c0,.62.22.84.92.84v2a2.42,2.42,0,0,1-.48.05C141,226.52,140.14,225.55,140.14,223.66Z"/><path d="M150.5,224.45a7.32,7.32,0,0,0,2.88-.51v2.14a7.71,7.71,0,0,1-3,.55c-3.89,0-5.08-2.34-5.08-5.77s1.19-5.76,5.08-5.76a7.54,7.54,0,0,1,3,.55v2.13a7.34,7.34,0,0,0-2.88-.5c-2.14,0-2.75,1.45-2.75,3.58S148.36,224.45,150.5,224.45Z"/><path d="M155.16,220.86c0-3.39,1-5.76,4.89-5.76s4.88,2.37,4.88,5.76-1,5.77-4.88,5.77S155.16,224.25,155.16,220.86Zm7.28,0c0-2.35-.3-3.69-2.39-3.69s-2.4,1.34-2.4,3.69.31,3.7,2.4,3.7S162.44,223.22,162.44,220.86Z"/><path d="M171,219.76c3.3.29,4.16,1.28,4.16,3.32s-1.17,3.55-4.69,3.55a10.32,10.32,0,0,1-3.63-.6v-2.11a9.48,9.48,0,0,0,3.28.62c1.76,0,2.62-.4,2.62-1.37,0-.81-.35-1.23-1.83-1.36-3.32-.29-4.14-1.32-4.14-3.21s1.24-3.5,4.47-3.5a8.3,8.3,0,0,1,3.41.55v2.13a9.21,9.21,0,0,0-3.36-.61c-1.3,0-2.12.37-2.12,1.36C169.15,219.3,169.55,219.63,171,219.76Z"/><rect x="262.5" y="183.5" width="492.5" height="67.08" style="fill:#fff;stroke:#d67a61;stroke-miterlimit:10;stroke-width:3px"/><rect x="25.5" y="257.5" width="230.5" height="67.08" style="fill:#fff;stroke:#d67a61;stroke-miterlimit:10;stroke-width:3px"/><path d="M50.8,293H44.11v7.32H41.64v-16.5H51.5v2.27H44.11v4.64H50.8Z"/><path d="M57.62,289.1c3.87,0,4.48,2.55,4.48,5.59,0,.37,0,.72,0,1.07H55.22c0,1.66.64,2.73,2.88,2.73a8.67,8.67,0,0,0,3.5-.66V300a10.41,10.41,0,0,1-3.87.68c-3.68,0-5-2.2-5-5.77S54,289.1,57.62,289.1Zm-2.4,4.95h4.4c0-1.5-.09-2.82-2-2.82S55.31,292.4,55.22,294.05Z"/><path d="M69.19,298.45a7.32,7.32,0,0,0,2.88-.51v2.14a7.71,7.71,0,0,1-3,.55c-3.89,0-5.08-2.34-5.08-5.77s1.19-5.76,5.08-5.76a7.54,7.54,0,0,1,3,.55v2.13a7.34,7.34,0,0,0-2.88-.5c-2.14,0-2.75,1.45-2.75,3.58S67.05,298.45,69.19,298.45Z"/><path d="M79.15,291.19a5,5,0,0,0-2.53.64v8.53H74.16v-16.5h2.46v6.05a5.76,5.76,0,0,1,2.95-.81c2.8,0,3.79,1.38,3.79,3.5v7.76H80.89v-7.54C80.89,291.69,80.32,291.19,79.15,291.19Z"/><path d="M89.62,291.21a9.35,9.35,0,0,0-3.43.66v-2.13a10,10,0,0,1,3.61-.64c3.61,0,4.45,1.58,4.45,3.91v7.35H92.79l-.39-.88a5.31,5.31,0,0,1-3.32,1.15c-2.84,0-3.79-1.76-3.79-3.52,0-2.38,1.54-3.39,4-3.59l2.46-.2v-.55C91.78,291.65,91.25,291.21,89.62,291.21Zm-.15,4.07c-1.1.13-1.74.55-1.74,1.69,0,.84.35,1.63,1.7,1.63a4,4,0,0,0,2.35-.72V295Z"/><path d="M100.54,293.76c3.3.29,4.16,1.28,4.16,3.32s-1.17,3.55-4.69,3.55a10.32,10.32,0,0,1-3.63-.6v-2.11a9.43,9.43,0,0,0,3.28.62c1.76,0,2.61-.4,2.61-1.37,0-.81-.35-1.23-1.82-1.36-3.32-.29-4.14-1.32-4.14-3.21s1.23-3.5,4.47-3.5a8.33,8.33,0,0,1,3.41.55v2.13a9.27,9.27,0,0,0-3.37-.61c-1.3,0-2.11.37-2.11,1.36C98.71,293.3,99.11,293.63,100.54,293.76Z"/><rect x="262.5" y="257.5" width="492.5" height="67.08" style="fill:#fff;stroke:#d67a61;stroke-miterlimit:10;stroke-width:3px"/><rect x="25.5" y="331.5" width="230.5" height="67.08" style="fill:#fff;stroke:#d67a61;stroke-miterlimit:10;stroke-width:3px"/><path d="M42,374.36v-16.5h2.46v16.5Z"/><path d="M60,366.6c0-1-.6-1.41-1.57-1.41a4.31,4.31,0,0,0-2.37.68,11.67,11.67,0,0,1,.06,1.21v7.28H53.7V366.6c0-1-.57-1.41-1.56-1.41a4.4,4.4,0,0,0-2.31.64v8.53H47.36v-11h1.45l.4.88a5.76,5.76,0,0,1,3.32-1.14,3.15,3.15,0,0,1,2.82,1.1,6.24,6.24,0,0,1,3.52-1.1c2.6,0,3.63,1.41,3.63,3.5v7.76H60Z"/><path d="M68.77,365.21a9.26,9.26,0,0,0-3.43.66v-2.13A9.92,9.92,0,0,1,69,363.1c3.6,0,4.44,1.58,4.44,3.91v7.35H71.94l-.4-.88a5.31,5.31,0,0,1-3.32,1.15c-2.84,0-3.79-1.76-3.79-3.52,0-2.38,1.54-3.39,4-3.59l2.46-.2v-.55C70.92,365.65,70.4,365.21,68.77,365.21Zm-.15,4.07c-1.11.13-1.74.55-1.74,1.69a1.47,1.47,0,0,0,1.69,1.63,4,4,0,0,0,2.35-.72V369Zm-.64-7,1.27-4.4h3L70,362.26Z"/><path d="M79.92,371.46a7.09,7.09,0,0,1-1.27-.09,1,1,0,0,0-.31.64c0,.37.2.57.66.64l4,.48c2.18.26,3,1.25,3,3.08,0,2.84-3,3.92-6.18,3.92-3,0-5.09-.95-5.09-3.21A2.9,2.9,0,0,1,77,374.19v0a1.76,1.76,0,0,1-.86-1.52,2.26,2.26,0,0,1,1-1.78,3.8,3.8,0,0,1-1.76-3.59c0-2.51,1.24-4.18,4.6-4.18a7.1,7.1,0,0,1,2,.26h3.8v1.56l-1.56.44a5.34,5.34,0,0,1,.33,1.92C84.52,369.79,83.29,371.46,79.92,371.46Zm-.77,3.23c-1.12.2-2.13.71-2.13,1.76,0,1.24.88,1.72,2.9,1.72s3.63-.57,3.63-1.89c0-.75-.37-1.08-1.27-1.19Zm.77-5.19c1.85,0,2.27-1,2.27-2.22s-.42-2.22-2.27-2.22-2.26,1-2.26,2.22S78.08,369.5,79.92,369.5Z"/><path d="M91.85,363.1c3.87,0,4.48,2.55,4.48,5.59,0,.37,0,.72,0,1.07H89.45c0,1.66.64,2.73,2.88,2.73a8.67,8.67,0,0,0,3.5-.66V374a10.38,10.38,0,0,1-3.87.68c-3.68,0-5-2.2-5-5.77S88.26,363.1,91.85,363.1Zm-2.4,4.95h4.4c0-1.5-.09-2.82-2-2.82S89.54,366.4,89.45,368.05Z"/><path d="M105.22,374.36v-7.54c0-1.13-.57-1.63-1.74-1.63a5,5,0,0,0-2.53.64v8.53H98.49v-11h1.45l.4.88a6.31,6.31,0,0,1,3.56-1.14c2.8,0,3.79,1.38,3.79,3.5v7.76Z"/><path d="M114.59,363.1c3.88,0,4.49,2.55,4.49,5.59,0,.37,0,.72,0,1.07H112.2c0,1.66.63,2.73,2.88,2.73a8.7,8.7,0,0,0,3.5-.66V374a10.43,10.43,0,0,1-3.88.68c-3.67,0-5-2.2-5-5.77S111,363.1,114.59,363.1Zm-2.39,4.95h4.4c0-1.5-.09-2.82-2-2.82S112.28,366.4,112.2,368.05Z"/><path d="M125.18,367.76c3.3.29,4.15,1.28,4.15,3.32s-1.16,3.55-4.68,3.55A10.32,10.32,0,0,1,121,374v-2.11a9.43,9.43,0,0,0,3.28.62c1.76,0,2.61-.4,2.61-1.37,0-.81-.35-1.23-1.82-1.36-3.32-.29-4.14-1.32-4.14-3.21s1.23-3.5,4.47-3.5a8.33,8.33,0,0,1,3.41.55v2.13a9.27,9.27,0,0,0-3.37-.61c-1.3,0-2.11.37-2.11,1.36C123.35,367.3,123.75,367.63,125.18,367.76Z"/><rect x="262.5" y="331.5" width="492.5" height="67.08" style="fill:#fff;stroke:#d67a61;stroke-miterlimit:10;stroke-width:3px"/><rect x="25.5" y="406.5" width="230.5" height="67.08" style="fill:#fff;stroke:#d67a61;stroke-miterlimit:10;stroke-width:3px"/><path d="M50,445.34H44.7l-1.16,4H40.85l5.24-16.7H48.6l5.23,16.7H51.15ZM47.34,436l-2.11,7.3h4.22Z"/><path d="M58,438.36v7.55c0,1.12.57,1.63,1.74,1.63a5,5,0,0,0,2.53-.64v-8.54H64.7v11H63.25l-.4-.88a6.32,6.32,0,0,1-3.56,1.15c-2.8,0-3.79-1.39-3.79-3.5v-7.77Z"/><path d="M74.16,439v-6.1h2.46v16.5H75.17l-.39-.88a5.78,5.78,0,0,1-3.57,1.15c-3.21,0-4.4-2.16-4.4-5.77s1.19-5.76,4.4-5.76A5.56,5.56,0,0,1,74.16,439Zm-4.86,4.9c0,2.05.33,3.68,2.48,3.68a4.71,4.71,0,0,0,2.38-.64v-6.07a4.61,4.61,0,0,0-2.38-.64C69.63,440.19,69.3,441.84,69.3,443.86Z"/><path d="M80.49,433.5a1.61,1.61,0,1,1-1.6,1.61A1.61,1.61,0,0,1,80.49,433.5Zm-1.23,13.16v-8.3h2.47v8.27c0,.62.22.84.92.84v2a2.42,2.42,0,0,1-.48,0C80.16,449.52,79.26,448.55,79.26,446.66Z"/><path d="M84.39,443.86c0-3.39,1-5.76,4.88-5.76s4.89,2.37,4.89,5.76-1,5.77-4.89,5.77S84.39,447.25,84.39,443.86Zm7.28,0c0-2.35-.31-3.69-2.4-3.69s-2.39,1.34-2.39,3.69.3,3.7,2.39,3.7S91.67,446.22,91.67,443.86Z"/><rect x="262.5" y="406.5" width="492.5" height="67.08" style="fill:#fff;stroke:#d67a61;stroke-miterlimit:10;stroke-width:3px"/><rect x="25.5" y="480.5" width="230.5" height="67.08" style="fill:#fff;stroke:#d67a61;stroke-miterlimit:10;stroke-width:3px"/><path d="M53.83,506.86l-5.23,16.7H46.09l-5.24-16.7h2.69l3.8,13.42,3.81-13.42Z"/><path d="M57,507.5a1.61,1.61,0,1,1-1.6,1.61A1.62,1.62,0,0,1,57,507.5Zm-1.23,13.16v-8.3h2.47v8.27c0,.62.22.84.92.84v2a2.42,2.42,0,0,1-.48,0C56.71,523.52,55.81,522.55,55.81,520.66Z"/><path d="M68.29,513v-6.1h2.46v16.5H69.3l-.4-.88a5.77,5.77,0,0,1-3.56,1.15c-3.22,0-4.4-2.16-4.4-5.77s1.18-5.76,4.4-5.76A5.59,5.59,0,0,1,68.29,513Zm-4.87,4.9c0,2,.33,3.68,2.49,3.68a4.71,4.71,0,0,0,2.38-.64v-6.07a4.61,4.61,0,0,0-2.38-.64C63.75,514.19,63.42,515.84,63.42,517.86Z"/><path d="M77.75,512.1c3.87,0,4.48,2.55,4.48,5.59,0,.37,0,.72,0,1.07H75.35c0,1.66.63,2.73,2.88,2.73a8.67,8.67,0,0,0,3.5-.66V523a10.43,10.43,0,0,1-3.88.68c-3.67,0-5-2.2-5-5.77S74.16,512.1,77.75,512.1Zm-2.4,4.95h4.4c0-1.5-.09-2.82-2-2.82S75.43,515.4,75.35,517.05Z"/><path d="M84.08,517.86c0-3.39,1-5.76,4.88-5.76s4.89,2.37,4.89,5.76-1,5.77-4.89,5.77S84.08,521.25,84.08,517.86Zm7.28,0c0-2.35-.31-3.69-2.4-3.69s-2.39,1.34-2.39,3.69.3,3.7,2.39,3.7S91.36,520.22,91.36,517.86Z"/><rect x="262.5" y="480.5" width="492.5" height="67.08" style="fill:#fff;stroke:#d67a61;stroke-miterlimit:10;stroke-width:3px"/><path d="M291.19,152.36,284,140.64l.06,11.72h-2.44v-16.5h2.25l7.17,11.73L291,135.86h2.45v16.5Z"/><path d="M298.36,141.36v7.55c0,1.12.57,1.63,1.74,1.63a5,5,0,0,0,2.53-.64v-8.54h2.47v11h-1.46l-.39-.88a6.37,6.37,0,0,1-3.57,1.15c-2.79,0-3.78-1.39-3.78-3.5v-7.77Zm1.1-1.1,1.28-4.4h3l-2.18,4.4Z"/><path d="M320.19,144.6c0-1-.6-1.41-1.56-1.41a4.32,4.32,0,0,0-2.38.68,11.59,11.59,0,0,1,.07,1.21v7.28h-2.47V144.6c0-1-.57-1.41-1.56-1.41a4.43,4.43,0,0,0-2.31.64v8.53h-2.47v-11H309l.39.88a5.79,5.79,0,0,1,3.33-1.14,3.14,3.14,0,0,1,2.81,1.1,6.24,6.24,0,0,1,3.52-1.1c2.6,0,3.63,1.41,3.63,3.5v7.76h-2.46Z"/><path d="M329.56,141.1c3.87,0,4.49,2.55,4.49,5.59,0,.37,0,.72-.05,1.07h-6.84c0,1.66.64,2.73,2.88,2.73a8.67,8.67,0,0,0,3.5-.66V152a10.34,10.34,0,0,1-3.87.68c-3.67,0-5-2.2-5-5.77S326,141.1,329.56,141.1Zm-2.4,5h4.4c0-1.5-.09-2.82-2-2.82S327.25,144.4,327.16,146.05Z"/><path d="M342.69,143.34a4.18,4.18,0,0,0-1.21-.13,5.37,5.37,0,0,0-2.81.66v8.49H336.2v-11h1.45l.4.88a5.59,5.59,0,0,1,3.48-1.14,5.24,5.24,0,0,1,1.16.13Z"/><path d="M344,146.86c0-3.39,1-5.76,4.88-5.76s4.89,2.37,4.89,5.76-1,5.77-4.89,5.77S344,150.25,344,146.86Zm7.28,0c0-2.35-.31-3.69-2.4-3.69s-2.4,1.34-2.4,3.69.31,3.7,2.4,3.7S351.23,149.22,351.23,146.86Z"/><path d="M359.76,145.76c3.3.29,4.16,1.28,4.16,3.32s-1.16,3.55-4.68,3.55a10.28,10.28,0,0,1-3.63-.6v-2.11a9.41,9.41,0,0,0,3.27.62c1.76,0,2.62-.4,2.62-1.37,0-.81-.35-1.23-1.82-1.36-3.33-.29-4.14-1.32-4.14-3.21s1.23-3.5,4.47-3.5a8.33,8.33,0,0,1,3.41.55v2.13a9.27,9.27,0,0,0-3.37-.61c-1.3,0-2.11.37-2.11,1.36C357.94,145.3,358.33,145.63,359.76,145.76Z"/><path d="M375,141.1c3.87,0,4.49,2.55,4.49,5.59,0,.37,0,.72,0,1.07h-6.85c.05,1.66.64,2.73,2.89,2.73a8.62,8.62,0,0,0,3.49-.66V152a10.34,10.34,0,0,1-3.87.68c-3.67,0-5-2.2-5-5.77S371.45,141.1,375,141.1Zm-2.4,5H377c0-1.5-.08-2.82-2-2.82S372.72,144.4,372.63,146.05Z"/><path d="M388.41,152.36v-7.54c0-1.13-.57-1.63-1.74-1.63a5,5,0,0,0-2.53.64v8.53h-2.47v-11h1.46l.39.88a6.36,6.36,0,0,1,3.57-1.14c2.79,0,3.78,1.38,3.78,3.5v7.76Z"/><path d="M399.52,152.47a7.11,7.11,0,0,1-1.37.16c-2.44,0-3.87-1.06-3.87-3.44v-5.74h-2v-1.52l2-.57v-2.62l2.47-.7v3.32h3.1v2.09h-3.1v5.46c0,1.1.55,1.63,1.8,1.63a6.42,6.42,0,0,0,1-.09Z"/><path d="M406.14,141.1c3.87,0,4.49,2.55,4.49,5.59,0,.37,0,.72-.05,1.07h-6.84c.05,1.66.64,2.73,2.88,2.73a8.67,8.67,0,0,0,3.5-.66V152a10.34,10.34,0,0,1-3.87.68c-3.67,0-5-2.2-5-5.77S402.55,141.1,406.14,141.1Zm-2.4,5h4.4c0-1.5-.09-2.82-2-2.82S403.83,144.4,403.74,146.05Z"/><path d="M419.27,143.34a4.18,4.18,0,0,0-1.21-.13,5.37,5.37,0,0,0-2.81.66v8.49h-2.47v-11h1.45l.4.88a5.59,5.59,0,0,1,3.48-1.14,5.24,5.24,0,0,1,1.16.13Z"/><path d="M420.53,146.86c0-3.39,1-5.76,4.88-5.76s4.89,2.37,4.89,5.76-1,5.77-4.89,5.77S420.53,150.25,420.53,146.86Zm7.28,0c0-2.35-.31-3.69-2.4-3.69s-2.4,1.34-2.4,3.69.31,3.7,2.4,3.7S427.81,149.22,427.81,146.86Z"/><path d="M436.34,145.76c3.31.29,4.16,1.28,4.16,3.32s-1.16,3.55-4.68,3.55a10.28,10.28,0,0,1-3.63-.6v-2.11a9.41,9.41,0,0,0,3.27.62c1.77,0,2.62-.4,2.62-1.37,0-.81-.35-1.23-1.82-1.36-3.33-.29-4.14-1.32-4.14-3.21s1.23-3.5,4.47-3.5a8.33,8.33,0,0,1,3.41.55v2.13a9.27,9.27,0,0,0-3.37-.61c-1.3,0-2.11.37-2.11,1.36C434.52,145.3,434.92,145.63,436.34,145.76Z"/><path d="M446.73,146.86c0-3.39,1-5.76,4.88-5.76s4.89,2.37,4.89,5.76-1,5.77-4.89,5.77S446.73,150.25,446.73,146.86Zm7.28,0c0-2.35-.31-3.69-2.4-3.69s-2.4,1.34-2.4,3.69.31,3.7,2.4,3.7S454,149.22,454,146.86Z"/><path d="M467.94,150.45a7.32,7.32,0,0,0,2.88-.51v2.14a7.71,7.71,0,0,1-3,.55c-3.89,0-5.08-2.34-5.08-5.77s1.19-5.76,5.08-5.76a7.54,7.54,0,0,1,3,.55v2.13a7.34,7.34,0,0,0-2.88-.5c-2.14,0-2.75,1.45-2.75,3.58S465.8,150.45,467.94,150.45Z"/><path d="M472.6,146.86c0-3.39,1-5.76,4.88-5.76s4.89,2.37,4.89,5.76-1,5.77-4.89,5.77S472.6,150.25,472.6,146.86Zm7.28,0c0-2.35-.31-3.69-2.4-3.69s-2.39,1.34-2.39,3.69.3,3.7,2.39,3.7S479.88,149.22,479.88,146.86Z"/><path d="M491.21,152.36v-7.54c0-1.13-.57-1.63-1.74-1.63a5,5,0,0,0-2.53.64v8.53h-2.46v-11h1.45l.4.88a6.31,6.31,0,0,1,3.56-1.14c2.8,0,3.79,1.38,3.79,3.5v7.76Z"/><path d="M507.45,142v-6.1h2.46v16.5h-1.45l-.4-.88a5.75,5.75,0,0,1-3.56,1.15c-3.21,0-4.4-2.16-4.4-5.77s1.19-5.76,4.4-5.76A5.56,5.56,0,0,1,507.45,142Zm-4.86,4.9c0,2,.33,3.68,2.48,3.68a4.71,4.71,0,0,0,2.38-.64v-6.07a4.61,4.61,0,0,0-2.38-.64C502.92,143.19,502.59,144.84,502.59,146.86Z"/><path d="M516.91,141.1c3.87,0,4.49,2.55,4.49,5.59,0,.37,0,.72,0,1.07h-6.84c0,1.66.64,2.73,2.88,2.73a8.67,8.67,0,0,0,3.5-.66V152a10.34,10.34,0,0,1-3.87.68c-3.68,0-5-2.2-5-5.77S513.32,141.1,516.91,141.1Zm-2.4,5h4.4c0-1.5-.09-2.82-2-2.82S514.6,144.4,514.51,146.05Z"/><path d="M528.48,150.45a7.29,7.29,0,0,0,2.88-.51v2.14a7.69,7.69,0,0,1-3,.55c-3.9,0-5.09-2.34-5.09-5.77s1.19-5.76,5.09-5.76a7.52,7.52,0,0,1,3,.55v2.13a7.3,7.3,0,0,0-2.88-.5c-2.13,0-2.75,1.45-2.75,3.58S526.35,150.45,528.48,150.45Z"/><path d="M534.9,136.5a1.61,1.61,0,1,1,0,3.21,1.61,1.61,0,0,1,0-3.21Zm-1.23,13.16v-8.3h2.46v8.27c0,.62.22.84.93.84v2a2.42,2.42,0,0,1-.48.05C534.57,152.52,533.67,151.55,533.67,149.66Z"/><path d="M551.78,144.6c0-1-.6-1.41-1.56-1.41a4.32,4.32,0,0,0-2.38.68,11.59,11.59,0,0,1,.07,1.21v7.28h-2.47V144.6c0-1-.57-1.41-1.56-1.41a4.43,4.43,0,0,0-2.31.64v8.53H539.1v-11h1.46l.39.88a5.79,5.79,0,0,1,3.33-1.14,3.14,3.14,0,0,1,2.81,1.1,6.24,6.24,0,0,1,3.52-1.1c2.6,0,3.63,1.41,3.63,3.5v7.76h-2.46Z"/><path d="M560.51,143.21a9.31,9.31,0,0,0-3.43.66v-2.13a10,10,0,0,1,3.61-.64c3.61,0,4.44,1.58,4.44,3.91v7.35h-1.45l-.4-.88a5.31,5.31,0,0,1-3.32,1.15c-2.84,0-3.78-1.76-3.78-3.52,0-2.38,1.54-3.39,4-3.59l2.47-.2v-.55C562.67,143.65,562.14,143.21,560.51,143.21Zm-.15,4.07c-1.1.13-1.74.55-1.74,1.69a1.47,1.47,0,0,0,1.69,1.63,4.05,4.05,0,0,0,2.36-.72V147Z"/><path d="M567.7,149.66v-13.8h2.47v13.77c0,.62.22.84.92.84v2a2.42,2.42,0,0,1-.48.05C568.61,152.52,567.7,151.55,567.7,149.66Z"/><path d="M577.71,141.1c3.88,0,4.49,2.55,4.49,5.59,0,.37,0,.72,0,1.07h-6.84c0,1.66.63,2.73,2.88,2.73a8.7,8.7,0,0,0,3.5-.66V152a10.43,10.43,0,0,1-3.88.68c-3.67,0-5-2.2-5-5.77S574.13,141.1,577.71,141.1Zm-2.39,5h4.4c0-1.5-.09-2.82-2-2.82S575.4,144.4,575.32,146.05Z"/><path d="M588.3,145.76c3.3.29,4.16,1.28,4.16,3.32s-1.17,3.55-4.69,3.55a10.32,10.32,0,0,1-3.63-.6v-2.11a9.43,9.43,0,0,0,3.28.62c1.76,0,2.61-.4,2.61-1.37,0-.81-.35-1.23-1.82-1.36-3.32-.29-4.14-1.32-4.14-3.21s1.23-3.5,4.47-3.5a8.33,8.33,0,0,1,3.41.55v2.13a9.27,9.27,0,0,0-3.37-.61c-1.3,0-2.11.37-2.11,1.36C586.47,145.3,586.87,145.63,588.3,145.76Z"/><path d="M291.19,226.36,284,214.64l.06,11.72h-2.44v-16.5h2.25l7.17,11.73L291,209.86h2.45v16.5Z"/><path d="M298.36,215.36v7.55c0,1.12.57,1.63,1.74,1.63a5,5,0,0,0,2.53-.64v-8.54h2.47v11h-1.46l-.39-.88a6.37,6.37,0,0,1-3.57,1.15c-2.79,0-3.78-1.39-3.78-3.5v-7.77Zm1.1-1.1,1.28-4.4h3l-2.18,4.4Z"/><path d="M320.19,218.6c0-1-.6-1.41-1.56-1.41a4.32,4.32,0,0,0-2.38.68,11.59,11.59,0,0,1,.07,1.21v7.28h-2.47V218.6c0-1-.57-1.41-1.56-1.41a4.43,4.43,0,0,0-2.31.64v8.53h-2.47v-11H309l.39.88a5.79,5.79,0,0,1,3.33-1.14,3.14,3.14,0,0,1,2.81,1.1,6.24,6.24,0,0,1,3.52-1.1c2.6,0,3.63,1.41,3.63,3.5v7.76h-2.46Z"/><path d="M329.56,215.1c3.87,0,4.49,2.55,4.49,5.59,0,.37,0,.72-.05,1.07h-6.84c0,1.66.64,2.73,2.88,2.73a8.67,8.67,0,0,0,3.5-.66V226a10.34,10.34,0,0,1-3.87.68c-3.67,0-5-2.2-5-5.77S326,215.1,329.56,215.1Zm-2.4,5h4.4c0-1.5-.09-2.82-2-2.82S327.25,218.4,327.16,220.05Z"/><path d="M342.69,217.34a4.18,4.18,0,0,0-1.21-.13,5.37,5.37,0,0,0-2.81.66v8.49H336.2v-11h1.45l.4.88a5.59,5.59,0,0,1,3.48-1.14,5.24,5.24,0,0,1,1.16.13Z"/><path d="M344,220.86c0-3.39,1-5.76,4.88-5.76s4.89,2.37,4.89,5.76-1,5.77-4.89,5.77S344,224.25,344,220.86Zm7.28,0c0-2.35-.31-3.69-2.4-3.69s-2.4,1.34-2.4,3.69.31,3.7,2.4,3.7S351.23,223.22,351.23,220.86Z"/><path d="M359.76,219.76c3.3.29,4.16,1.28,4.16,3.32s-1.16,3.55-4.68,3.55a10.28,10.28,0,0,1-3.63-.6v-2.11a9.41,9.41,0,0,0,3.27.62c1.76,0,2.62-.4,2.62-1.37,0-.81-.35-1.23-1.82-1.36-3.33-.29-4.14-1.32-4.14-3.21s1.23-3.5,4.47-3.5a8.33,8.33,0,0,1,3.41.55v2.13a9.27,9.27,0,0,0-3.37-.61c-1.3,0-2.11.37-2.11,1.36C357.94,219.3,358.33,219.63,359.76,219.76Z"/><path d="M368.67,224,367,229.11h-1.74l.62-5.08Z"/><path d="M375.52,223.66v-13.8H378v13.77c0,.62.22.84.92.84v2a2.42,2.42,0,0,1-.48.05C376.42,226.52,375.52,225.55,375.52,223.66Z"/><path d="M385.53,215.1c3.87,0,4.48,2.55,4.48,5.59,0,.37,0,.72,0,1.07h-6.84c0,1.66.64,2.73,2.88,2.73a8.67,8.67,0,0,0,3.5-.66V226a10.41,10.41,0,0,1-3.87.68c-3.68,0-5-2.2-5-5.77S381.94,215.1,385.53,215.1Zm-2.4,5h4.4c0-1.5-.09-2.82-2-2.82S383.22,218.4,383.13,220.05Z"/><path d="M398.48,226.47a7,7,0,0,1-1.36.16c-2.44,0-3.87-1.06-3.87-3.44v-5.74h-2v-1.52l2-.57v-2.62l2.46-.7v3.32h3.1v2.09h-3.1v5.46c0,1.1.55,1.63,1.81,1.63a6.15,6.15,0,0,0,1-.09Z"/><path d="M407,217.34a4.18,4.18,0,0,0-1.21-.13,5.41,5.41,0,0,0-2.82.66v8.49h-2.46v-11H402l.4.88a5.54,5.54,0,0,1,3.47-1.14,5.26,5.26,0,0,1,1.17.13Z"/><path d="M412.08,217.21a9.26,9.26,0,0,0-3.43.66v-2.13a9.92,9.92,0,0,1,3.61-.64c3.6,0,4.44,1.58,4.44,3.91v7.35h-1.45l-.4-.88a5.31,5.31,0,0,1-3.32,1.15c-2.84,0-3.78-1.76-3.78-3.52,0-2.38,1.54-3.39,4-3.59l2.47-.2v-.55C414.24,217.65,413.71,217.21,412.08,217.21Zm-.15,4.07c-1.1.13-1.74.55-1.74,1.69a1.47,1.47,0,0,0,1.69,1.63,4.08,4.08,0,0,0,2.36-.72V221Z"/><path d="M423,219.76c3.3.29,4.16,1.28,4.16,3.32s-1.17,3.55-4.69,3.55a10.37,10.37,0,0,1-3.63-.6v-2.11a9.53,9.53,0,0,0,3.28.62c1.76,0,2.62-.4,2.62-1.37,0-.81-.35-1.23-1.83-1.36-3.32-.29-4.13-1.32-4.13-3.21s1.23-3.5,4.46-3.5a8.27,8.27,0,0,1,3.41.55v2.13a9.21,9.21,0,0,0-3.36-.61c-1.3,0-2.11.37-2.11,1.36C421.17,219.3,421.56,219.63,423,219.76Z"/><path d="M435.49,215.36l2.48,7.86,2.49-7.86h2.73l-6.29,16.5h-2.76l2.73-5.87-4.11-10.63Z"/><path d="M448.77,220.86c0-3.39,1-5.76,4.89-5.76s4.88,2.37,4.88,5.76-1,5.77-4.88,5.77S448.77,224.25,448.77,220.86Zm7.29,0c0-2.35-.31-3.69-2.4-3.69s-2.4,1.34-2.4,3.69.31,3.7,2.4,3.7S456.06,223.22,456.06,220.86Z"/><path d="M467,226.47a7,7,0,0,1-1.36.16c-2.45,0-3.88-1.06-3.88-3.44v-5.74h-2v-1.52l2-.57v-2.62l2.47-.7v3.32h3.1v2.09h-3.1v5.46c0,1.1.55,1.63,1.8,1.63a6.17,6.17,0,0,0,1-.09Z"/><path d="M475.5,217.34a4.18,4.18,0,0,0-1.21-.13,5.4,5.4,0,0,0-2.81.66v8.49H469v-11h1.46l.39.88a5.59,5.59,0,0,1,3.48-1.14,5.17,5.17,0,0,1,1.16.13Z"/><path d="M476.76,220.86c0-3.39,1-5.76,4.88-5.76s4.89,2.37,4.89,5.76-1,5.77-4.89,5.77S476.76,224.25,476.76,220.86Zm7.28,0c0-2.35-.31-3.69-2.4-3.69s-2.4,1.34-2.4,3.69.31,3.7,2.4,3.7S484,223.22,484,220.86Z"/><path d="M492.58,219.76c3.3.29,4.16,1.28,4.16,3.32s-1.17,3.55-4.69,3.55a10.32,10.32,0,0,1-3.63-.6v-2.11a9.43,9.43,0,0,0,3.28.62c1.76,0,2.61-.4,2.61-1.37,0-.81-.35-1.23-1.82-1.36-3.32-.29-4.14-1.32-4.14-3.21s1.23-3.5,4.47-3.5a8.33,8.33,0,0,1,3.41.55v2.13a9.27,9.27,0,0,0-3.37-.61c-1.3,0-2.11.37-2.11,1.36C490.75,219.3,491.15,219.63,492.58,219.76Z"/><path d="M508.2,224.45a7.32,7.32,0,0,0,2.88-.51v2.14a7.71,7.71,0,0,1-3,.55c-3.89,0-5.08-2.34-5.08-5.77s1.19-5.76,5.08-5.76a7.54,7.54,0,0,1,3,.55v2.13a7.34,7.34,0,0,0-2.88-.5c-2.14,0-2.75,1.45-2.75,3.58S506.06,224.45,508.2,224.45Z"/><path d="M517.11,217.21a9.36,9.36,0,0,0-3.44.66v-2.13a10,10,0,0,1,3.61-.64c3.61,0,4.45,1.58,4.45,3.91v7.35h-1.46l-.39-.88a5.31,5.31,0,0,1-3.32,1.15c-2.84,0-3.79-1.76-3.79-3.52,0-2.38,1.54-3.39,4-3.59l2.46-.2v-.55C519.26,217.65,518.73,217.21,517.11,217.21Zm-.16,4.07c-1.1.13-1.74.55-1.74,1.69a1.48,1.48,0,0,0,1.7,1.63,4,4,0,0,0,2.35-.72V221Z"/><path d="M530.57,217.34a4.18,4.18,0,0,0-1.21-.13,5.41,5.41,0,0,0-2.82.66v8.49h-2.46v-11h1.45l.4.88a5.54,5.54,0,0,1,3.47-1.14,5.26,5.26,0,0,1,1.17.13Z"/><path d="M535.63,217.21a9.26,9.26,0,0,0-3.43.66v-2.13a9.92,9.92,0,0,1,3.61-.64c3.6,0,4.44,1.58,4.44,3.91v7.35H538.8l-.4-.88a5.31,5.31,0,0,1-3.32,1.15c-2.84,0-3.79-1.76-3.79-3.52,0-2.38,1.54-3.39,4-3.59l2.47-.2v-.55C537.79,217.65,537.26,217.21,535.63,217.21Zm-.15,4.07c-1.1.13-1.74.55-1.74,1.69a1.47,1.47,0,0,0,1.69,1.63,4.08,4.08,0,0,0,2.36-.72V221Z"/><path d="M547.53,224.45a7.29,7.29,0,0,0,2.88-.51v2.14a7.66,7.66,0,0,1-3,.55c-3.9,0-5.09-2.34-5.09-5.77s1.19-5.76,5.09-5.76a7.49,7.49,0,0,1,3,.55v2.13a7.3,7.3,0,0,0-2.88-.5c-2.13,0-2.75,1.45-2.75,3.58S545.4,224.45,547.53,224.45Z"/><path d="M558.82,226.47a7.11,7.11,0,0,1-1.37.16c-2.44,0-3.87-1.06-3.87-3.44v-5.74h-2v-1.52l2-.57v-2.62l2.47-.7v3.32h3.1v2.09h-3.1v5.46c0,1.1.55,1.63,1.8,1.63a6.42,6.42,0,0,0,1-.09Z"/><path d="M565.44,215.1c3.87,0,4.49,2.55,4.49,5.59,0,.37,0,.72,0,1.07H563c0,1.66.64,2.73,2.88,2.73a8.67,8.67,0,0,0,3.5-.66V226a10.34,10.34,0,0,1-3.87.68c-3.67,0-5-2.2-5-5.77S561.85,215.1,565.44,215.1Zm-2.4,5h4.4c0-1.5-.09-2.82-2-2.82S563.13,218.4,563,220.05Z"/><path d="M578.57,217.34a4.18,4.18,0,0,0-1.21-.13,5.37,5.37,0,0,0-2.81.66v8.49h-2.47v-11h1.45l.4.88a5.57,5.57,0,0,1,3.48-1.14,5.17,5.17,0,0,1,1.16.13Z"/><path d="M584.71,215.1c3.87,0,4.49,2.55,4.49,5.59,0,.37,0,.72,0,1.07h-6.85c.05,1.66.64,2.73,2.88,2.73a8.67,8.67,0,0,0,3.5-.66V226a10.34,10.34,0,0,1-3.87.68c-3.67,0-5-2.2-5-5.77S581.12,215.1,584.71,215.1Zm-2.4,5h4.4c0-1.5-.09-2.82-2-2.82S582.4,218.4,582.31,220.05Z"/><path d="M595.29,219.76c3.3.29,4.16,1.28,4.16,3.32s-1.16,3.55-4.68,3.55a10.39,10.39,0,0,1-3.64-.6v-2.11a9.53,9.53,0,0,0,3.28.62c1.76,0,2.62-.4,2.62-1.37,0-.81-.35-1.23-1.82-1.36-3.33-.29-4.14-1.32-4.14-3.21s1.23-3.5,4.47-3.5a8.33,8.33,0,0,1,3.41.55v2.13a9.27,9.27,0,0,0-3.37-.61c-1.3,0-2.11.37-2.11,1.36C593.47,219.3,593.86,219.63,595.29,219.76Z"/><path d="M291.19,300.36,284,288.64l.06,11.72h-2.44v-16.5h2.25l7.17,11.73L291,283.86h2.45v16.5Z"/><path d="M298.36,289.36v7.55c0,1.12.57,1.63,1.74,1.63a5,5,0,0,0,2.53-.64v-8.54h2.47v11h-1.46l-.39-.88a6.37,6.37,0,0,1-3.57,1.15c-2.79,0-3.78-1.39-3.78-3.5v-7.77Zm1.1-1.1,1.28-4.4h3l-2.18,4.4Z"/><path d="M320.19,292.6c0-1-.6-1.41-1.56-1.41a4.32,4.32,0,0,0-2.38.68,11.59,11.59,0,0,1,.07,1.21v7.28h-2.47V292.6c0-1-.57-1.41-1.56-1.41a4.43,4.43,0,0,0-2.31.64v8.53h-2.47v-11H309l.39.88a5.79,5.79,0,0,1,3.33-1.14,3.14,3.14,0,0,1,2.81,1.1,6.24,6.24,0,0,1,3.52-1.1c2.6,0,3.63,1.41,3.63,3.5v7.76h-2.46Z"/><path d="M329.56,289.1c3.87,0,4.49,2.55,4.49,5.59,0,.37,0,.72-.05,1.07h-6.84c0,1.66.64,2.73,2.88,2.73a8.67,8.67,0,0,0,3.5-.66V300a10.34,10.34,0,0,1-3.87.68c-3.67,0-5-2.2-5-5.77S326,289.1,329.56,289.1Zm-2.4,4.95h4.4c0-1.5-.09-2.82-2-2.82S327.25,292.4,327.16,294.05Z"/><path d="M342.69,291.34a4.18,4.18,0,0,0-1.21-.13,5.37,5.37,0,0,0-2.81.66v8.49H336.2v-11h1.45l.4.88a5.59,5.59,0,0,1,3.48-1.14,5.24,5.24,0,0,1,1.16.13Z"/><path d="M344,294.86c0-3.39,1-5.76,4.88-5.76s4.89,2.37,4.89,5.76-1,5.77-4.89,5.77S344,298.25,344,294.86Zm7.28,0c0-2.35-.31-3.69-2.4-3.69s-2.4,1.34-2.4,3.69.31,3.7,2.4,3.7S351.23,297.22,351.23,294.86Z"/><path d="M359.76,293.76c3.3.29,4.16,1.28,4.16,3.32s-1.16,3.55-4.68,3.55a10.28,10.28,0,0,1-3.63-.6v-2.11a9.41,9.41,0,0,0,3.27.62c1.76,0,2.62-.4,2.62-1.37,0-.81-.35-1.23-1.82-1.36-3.33-.29-4.14-1.32-4.14-3.21s1.23-3.5,4.47-3.5a8.33,8.33,0,0,1,3.41.55v2.13a9.27,9.27,0,0,0-3.37-.61c-1.3,0-2.11.37-2.11,1.36C357.94,293.3,358.33,293.63,359.76,293.76Z"/><path d="M370.15,294.86c0-3.39,1-5.76,4.88-5.76s4.89,2.37,4.89,5.76-1,5.77-4.89,5.77S370.15,298.25,370.15,294.86Zm7.28,0c0-2.35-.31-3.69-2.4-3.69s-2.4,1.34-2.4,3.69.31,3.7,2.4,3.7S377.43,297.22,377.43,294.86Z"/><path d="M388.52,291.34a4.27,4.27,0,0,0-1.21-.13,5.41,5.41,0,0,0-2.82.66v8.49H382v-11h1.45l.4.88a5.54,5.54,0,0,1,3.47-1.14,5.34,5.34,0,0,1,1.17.13Z"/><path d="M394.26,297.46a7.28,7.28,0,0,1-1.28-.09,1,1,0,0,0-.3.64c0,.37.19.57.66.64l4,.48c2.18.26,2.95,1.25,2.95,3.08,0,2.84-3,3.92-6.19,3.92-2.94,0-5.08-.95-5.08-3.21a2.89,2.89,0,0,1,2.29-2.73v0a1.76,1.76,0,0,1-.86-1.52,2.26,2.26,0,0,1,1-1.78,3.8,3.8,0,0,1-1.76-3.59c0-2.51,1.23-4.18,4.6-4.18a7,7,0,0,1,2,.26h3.81v1.56l-1.56.44a5.34,5.34,0,0,1,.33,1.92C398.86,295.79,397.63,297.46,394.26,297.46Zm-.77,3.23c-1.12.2-2.13.71-2.13,1.76,0,1.24.88,1.72,2.9,1.72s3.63-.57,3.63-1.89c0-.75-.37-1.08-1.28-1.19Zm.77-5.19c1.85,0,2.27-1,2.27-2.22s-.42-2.22-2.27-2.22-2.27,1-2.27,2.22S392.41,295.5,394.26,295.5Z"/><path d="M405.54,291.21a9.35,9.35,0,0,0-3.43.66v-2.13a10,10,0,0,1,3.61-.64c3.61,0,4.45,1.58,4.45,3.91v7.35h-1.46l-.39-.88a5.31,5.31,0,0,1-3.32,1.15c-2.84,0-3.79-1.76-3.79-3.52,0-2.38,1.54-3.39,4-3.59l2.46-.2v-.55C407.7,291.65,407.17,291.21,405.54,291.21Zm-.15,4.07c-1.1.13-1.74.55-1.74,1.69,0,.84.35,1.63,1.7,1.63a4,4,0,0,0,2.35-.72V295Z"/><path d="M419.25,300.36v-7.54c0-1.13-.57-1.63-1.74-1.63a5,5,0,0,0-2.53.64v8.53h-2.46v-11H414l.4.88a6.31,6.31,0,0,1,3.56-1.14c2.8,0,3.79,1.38,3.79,3.5v7.76Z"/><path d="M425.5,284.5a1.61,1.61,0,1,1-1.61,1.61A1.61,1.61,0,0,1,425.5,284.5Zm-1.23,13.16v-8.3h2.46v8.27c0,.62.22.84.92.84v2a2.42,2.42,0,0,1-.48,0C425.17,300.52,424.27,299.55,424.27,297.66Z"/><path d="M428.86,300.36v-1.73l5.59-7.11-5.19,0v-2.18h8.36v1.74L432,298.21l5.83,0v2.17Z"/><path d="M443.08,291.21a9.36,9.36,0,0,0-3.44.66v-2.13a10,10,0,0,1,3.61-.64c3.61,0,4.45,1.58,4.45,3.91v7.35h-1.45l-.4-.88a5.31,5.31,0,0,1-3.32,1.15c-2.84,0-3.79-1.76-3.79-3.52,0-2.38,1.54-3.39,4-3.59l2.46-.2v-.55C445.23,291.65,444.71,291.21,443.08,291.21Zm-.16,4.07c-1.1.13-1.74.55-1.74,1.69a1.48,1.48,0,0,0,1.7,1.63,4,4,0,0,0,2.35-.72V295Z"/><path d="M457.09,290v-6.1h2.47v16.5H458.1l-.39-.88a5.78,5.78,0,0,1-3.57,1.15c-3.21,0-4.4-2.16-4.4-5.77s1.19-5.76,4.4-5.76A5.56,5.56,0,0,1,457.09,290Zm-4.86,4.9c0,2.05.33,3.68,2.48,3.68a4.71,4.71,0,0,0,2.38-.64v-6.07a4.61,4.61,0,0,0-2.38-.64C452.56,291.19,452.23,292.84,452.23,294.86Z"/><path d="M461.67,294.86c0-3.39,1-5.76,4.88-5.76s4.89,2.37,4.89,5.76-1,5.77-4.89,5.77S461.67,298.25,461.67,294.86Zm7.28,0c0-2.35-.31-3.69-2.4-3.69s-2.4,1.34-2.4,3.69.31,3.7,2.4,3.7S469,297.22,469,294.86Z"/><path d="M477.48,293.76c3.3.29,4.16,1.28,4.16,3.32s-1.16,3.55-4.68,3.55a10.28,10.28,0,0,1-3.63-.6v-2.11a9.41,9.41,0,0,0,3.27.62c1.76,0,2.62-.4,2.62-1.37,0-.81-.35-1.23-1.82-1.36-3.33-.29-4.14-1.32-4.14-3.21s1.23-3.5,4.47-3.5a8.33,8.33,0,0,1,3.41.55v2.13a9.27,9.27,0,0,0-3.37-.61c-1.3,0-2.11.37-2.11,1.36C475.66,293.3,476.05,293.63,477.48,293.76Z"/><path d="M492.75,289.1c3.87,0,4.49,2.55,4.49,5.59,0,.37,0,.72,0,1.07h-6.85c0,1.66.64,2.73,2.89,2.73a8.62,8.62,0,0,0,3.49-.66V300a10.34,10.34,0,0,1-3.87.68c-3.67,0-5-2.2-5-5.77S489.17,289.1,492.75,289.1Zm-2.4,4.95h4.4c0-1.5-.08-2.82-2-2.82S490.44,292.4,490.35,294.05Z"/><path d="M506.13,300.36v-7.54c0-1.13-.57-1.63-1.74-1.63a5,5,0,0,0-2.53.64v8.53h-2.47v-11h1.46l.39.88a6.36,6.36,0,0,1,3.57-1.14c2.79,0,3.78,1.38,3.78,3.5v7.76Z"/><path d="M522.36,290v-6.1h2.47v16.5h-1.45l-.4-.88a5.77,5.77,0,0,1-3.56,1.15c-3.22,0-4.41-2.16-4.41-5.77s1.19-5.76,4.41-5.76A5.53,5.53,0,0,1,522.36,290Zm-4.86,4.9c0,2.05.33,3.68,2.49,3.68a4.7,4.7,0,0,0,2.37-.64v-6.07a4.6,4.6,0,0,0-2.37-.64C517.83,291.19,517.5,292.84,517.5,294.86Z"/><path d="M527.47,297.66v-8.3h2.46v8.27c0,.62.22.84.92.84v2a2.42,2.42,0,0,1-.48,0C528.37,300.52,527.47,299.55,527.47,297.66Zm.19-9.4,1.28-4.4h3l-2.18,4.4Z"/><path d="M536.84,291.21a9.26,9.26,0,0,0-3.43.66v-2.13a9.92,9.92,0,0,1,3.61-.64c3.6,0,4.44,1.58,4.44,3.91v7.35H540l-.4-.88a5.31,5.31,0,0,1-3.32,1.15c-2.84,0-3.79-1.76-3.79-3.52,0-2.38,1.54-3.39,4-3.59l2.47-.2v-.55C539,291.65,538.47,291.21,536.84,291.21Zm-.15,4.07c-1.11.13-1.74.55-1.74,1.69a1.47,1.47,0,0,0,1.69,1.63,4.08,4.08,0,0,0,2.36-.72V295Z"/><path d="M547.75,293.76c3.3.29,4.16,1.28,4.16,3.32s-1.17,3.55-4.69,3.55a10.32,10.32,0,0,1-3.63-.6v-2.11a9.48,9.48,0,0,0,3.28.62c1.76,0,2.62-.4,2.62-1.37,0-.81-.35-1.23-1.83-1.36-3.32-.29-4.13-1.32-4.13-3.21s1.23-3.5,4.46-3.5a8.3,8.3,0,0,1,3.41.55v2.13a9.21,9.21,0,0,0-3.36-.61c-1.3,0-2.12.37-2.12,1.36C545.92,293.3,546.32,293.63,547.75,293.76Z"/><path d="M556.66,298l-1.72,5.08h-1.73l.61-5.08Z"/><path d="M576,292.6c0-1-.6-1.41-1.57-1.41a4.28,4.28,0,0,0-2.37.68,11.67,11.67,0,0,1,.06,1.21v7.28h-2.46V292.6c0-1-.57-1.41-1.56-1.41a4.4,4.4,0,0,0-2.31.64v8.53h-2.47v-11h1.45l.4.88a5.74,5.74,0,0,1,3.32-1.14,3.15,3.15,0,0,1,2.82,1.1,6.24,6.24,0,0,1,3.52-1.1c2.6,0,3.63,1.41,3.63,3.5v7.76H576Z"/><path d="M585.33,289.1c3.87,0,4.48,2.55,4.48,5.59,0,.37,0,.72,0,1.07h-6.84c0,1.66.64,2.73,2.88,2.73a8.67,8.67,0,0,0,3.5-.66V300a10.41,10.41,0,0,1-3.87.68c-3.68,0-5-2.2-5-5.77S581.74,289.1,585.33,289.1Zm-2.4,4.95h4.4c0-1.5-.09-2.82-2-2.82S583,292.4,582.93,294.05Z"/><path d="M595.91,293.76c3.3.29,4.16,1.28,4.16,3.32s-1.17,3.55-4.69,3.55a10.32,10.32,0,0,1-3.63-.6v-2.11a9.43,9.43,0,0,0,3.28.62c1.76,0,2.62-.4,2.62-1.37,0-.81-.36-1.23-1.83-1.36-3.32-.29-4.14-1.32-4.14-3.21s1.24-3.5,4.47-3.5a8.3,8.3,0,0,1,3.41.55v2.13a9.27,9.27,0,0,0-3.37-.61c-1.29,0-2.11.37-2.11,1.36C594.08,293.3,594.48,293.63,595.91,293.76Z"/><path d="M606.78,289.1c3.87,0,4.48,2.55,4.48,5.59,0,.37,0,.72,0,1.07h-6.84c0,1.66.64,2.73,2.88,2.73a8.67,8.67,0,0,0,3.5-.66V300a10.41,10.41,0,0,1-3.87.68c-3.68,0-5-2.2-5-5.77S603.19,289.1,606.78,289.1Zm-2.4,4.95h4.4c0-1.5-.09-2.82-2-2.82S604.47,292.4,604.38,294.05Z"/><path d="M617.36,293.76c3.3.29,4.16,1.28,4.16,3.32s-1.17,3.55-4.69,3.55a10.32,10.32,0,0,1-3.63-.6v-2.11a9.43,9.43,0,0,0,3.28.62c1.76,0,2.62-.4,2.62-1.37,0-.81-.36-1.23-1.83-1.36-3.32-.29-4.14-1.32-4.14-3.21s1.24-3.5,4.47-3.5a8.3,8.3,0,0,1,3.41.55v2.13a9.27,9.27,0,0,0-3.37-.61c-1.29,0-2.11.37-2.11,1.36C615.53,293.3,615.93,293.63,617.36,293.76Z"/><path d="M629.85,289.36l2.49,7.86,2.49-7.86h2.72l-6.29,16.5h-2.75l2.73-5.87-4.12-10.63Z"/><path d="M647.39,291.21a9.36,9.36,0,0,0-3.44.66v-2.13a10,10,0,0,1,3.61-.64c3.61,0,4.45,1.58,4.45,3.91v7.35h-1.45l-.4-.88a5.31,5.31,0,0,1-3.32,1.15c-2.84,0-3.79-1.76-3.79-3.52,0-2.38,1.54-3.39,4-3.59l2.46-.2v-.55C649.54,291.65,649,291.21,647.39,291.21Zm-.16,4.07c-1.1.13-1.73.55-1.73,1.69a1.47,1.47,0,0,0,1.69,1.63,4,4,0,0,0,2.35-.72V295Z"/><path d="M661.09,300.36v-7.54c0-1.13-.57-1.63-1.73-1.63a5,5,0,0,0-2.53.64v8.53h-2.47v-11h1.45l.4.88a6.31,6.31,0,0,1,3.56-1.14c2.8,0,3.79,1.38,3.79,3.5v7.76Zm2.38-15.55c0,1.78-.68,3.08-2.68,3.08s-2.38-1.63-3.55-1.63c-.94,0-1,.64-1,1.19h-1.65c0-1.78.68-3.08,2.68-3.08s2.38,1.63,3.54,1.63c1,0,1.06-.64,1.06-1.19Z"/><path d="M665.58,294.86c0-3.39,1-5.76,4.88-5.76s4.89,2.37,4.89,5.76-1,5.77-4.89,5.77S665.58,298.25,665.58,294.86Zm7.28,0c0-2.35-.31-3.69-2.4-3.69s-2.39,1.34-2.39,3.69.3,3.7,2.39,3.7S672.86,297.22,672.86,294.86Z"/><path d="M681.4,293.76c3.3.29,4.16,1.28,4.16,3.32s-1.17,3.55-4.69,3.55a10.32,10.32,0,0,1-3.63-.6v-2.11a9.48,9.48,0,0,0,3.28.62c1.76,0,2.62-.4,2.62-1.37,0-.81-.35-1.23-1.83-1.36-3.32-.29-4.14-1.32-4.14-3.21s1.24-3.5,4.47-3.5a8.3,8.3,0,0,1,3.41.55v2.13a9.23,9.23,0,0,0-3.37-.61c-1.29,0-2.11.37-2.11,1.36C679.57,293.3,680,293.63,681.4,293.76Z"/><path d="M282,374.36v-16.5h2.46v16.5Z"/><path d="M300,366.6c0-1-.6-1.41-1.57-1.41a4.31,4.31,0,0,0-2.37.68,11.67,11.67,0,0,1,.06,1.21v7.28H293.7V366.6c0-1-.57-1.41-1.56-1.41a4.4,4.4,0,0,0-2.31.64v8.53h-2.47v-11h1.45l.4.88a5.76,5.76,0,0,1,3.32-1.14,3.15,3.15,0,0,1,2.82,1.1,6.24,6.24,0,0,1,3.52-1.1c2.6,0,3.63,1.41,3.63,3.5v7.76H300Z"/><path d="M308.77,365.21a9.26,9.26,0,0,0-3.43.66v-2.13a9.92,9.92,0,0,1,3.61-.64c3.6,0,4.44,1.58,4.44,3.91v7.35h-1.45l-.4-.88a5.31,5.31,0,0,1-3.32,1.15c-2.84,0-3.79-1.76-3.79-3.52,0-2.38,1.54-3.39,4-3.59l2.46-.2v-.55C310.92,365.65,310.4,365.21,308.77,365.21Zm-.15,4.07c-1.11.13-1.74.55-1.74,1.69a1.47,1.47,0,0,0,1.69,1.63,4,4,0,0,0,2.35-.72V369Zm-.64-7,1.27-4.4h3l-2.18,4.4Z"/><path d="M319.92,371.46a7.09,7.09,0,0,1-1.27-.09,1,1,0,0,0-.31.64c0,.37.2.57.66.64l4,.48c2.18.26,2.95,1.25,2.95,3.08,0,2.84-3,3.92-6.18,3.92-2.95,0-5.09-.95-5.09-3.21a2.9,2.9,0,0,1,2.29-2.73v0a1.76,1.76,0,0,1-.86-1.52,2.26,2.26,0,0,1,1-1.78,3.8,3.8,0,0,1-1.76-3.59c0-2.51,1.24-4.18,4.6-4.18a7.1,7.1,0,0,1,2,.26h3.8v1.56l-1.56.44a5.34,5.34,0,0,1,.33,1.92C324.52,369.79,323.29,371.46,319.92,371.46Zm-.77,3.23c-1.12.2-2.13.71-2.13,1.76,0,1.24.88,1.72,2.9,1.72s3.63-.57,3.63-1.89c0-.75-.37-1.08-1.27-1.19Zm.77-5.19c1.85,0,2.27-1,2.27-2.22s-.42-2.22-2.27-2.22-2.26,1-2.26,2.22S318.08,369.5,319.92,369.5Z"/><path d="M331.85,363.1c3.87,0,4.48,2.55,4.48,5.59,0,.37,0,.72,0,1.07h-6.84c0,1.66.64,2.73,2.88,2.73a8.67,8.67,0,0,0,3.5-.66V374a10.38,10.38,0,0,1-3.87.68c-3.68,0-5-2.2-5-5.77S328.26,363.1,331.85,363.1Zm-2.4,4.95h4.4c0-1.5-.09-2.82-2-2.82S329.54,366.4,329.45,368.05Z"/><path d="M345.22,374.36v-7.54c0-1.13-.57-1.63-1.74-1.63a5,5,0,0,0-2.53.64v8.53h-2.46v-11h1.45l.4.88a6.31,6.31,0,0,1,3.56-1.14c2.8,0,3.79,1.38,3.79,3.5v7.76Z"/><path d="M354.59,363.1c3.88,0,4.49,2.55,4.49,5.59,0,.37,0,.72,0,1.07H352.2c0,1.66.63,2.73,2.88,2.73a8.7,8.7,0,0,0,3.5-.66V374a10.43,10.43,0,0,1-3.88.68c-3.67,0-5-2.2-5-5.77S351,363.1,354.59,363.1Zm-2.39,4.95h4.4c0-1.5-.09-2.82-2-2.82S352.28,366.4,352.2,368.05Z"/><path d="M365.18,367.76c3.3.29,4.15,1.28,4.15,3.32s-1.16,3.55-4.68,3.55A10.32,10.32,0,0,1,361,374v-2.11a9.43,9.43,0,0,0,3.28.62c1.76,0,2.61-.4,2.61-1.37,0-.81-.35-1.23-1.82-1.36-3.32-.29-4.14-1.32-4.14-3.21s1.23-3.5,4.47-3.5a8.33,8.33,0,0,1,3.41.55v2.13a9.27,9.27,0,0,0-3.37-.61c-1.3,0-2.11.37-2.11,1.36C363.35,367.3,363.75,367.63,365.18,367.76Z"/><path d="M380.05,371.46a7.28,7.28,0,0,1-1.28-.09,1,1,0,0,0-.31.64c0,.37.2.57.66.64l4,.48c2.18.26,2.94,1.25,2.94,3.08,0,2.84-3,3.92-6.18,3.92-2.95,0-5.08-.95-5.08-3.21a2.89,2.89,0,0,1,2.29-2.73v0a1.76,1.76,0,0,1-.86-1.52,2.23,2.23,0,0,1,1-1.78,3.8,3.8,0,0,1-1.76-3.59c0-2.51,1.23-4.18,4.6-4.18a7,7,0,0,1,2,.26h3.81v1.56l-1.56.44a5.34,5.34,0,0,1,.33,1.92C384.65,369.79,383.41,371.46,380.05,371.46Zm-.77,3.23c-1.12.2-2.14.71-2.14,1.76,0,1.24.88,1.72,2.91,1.72s3.63-.57,3.63-1.89c0-.75-.38-1.08-1.28-1.19Zm.77-5.19c1.85,0,2.26-1,2.26-2.22s-.41-2.22-2.26-2.22-2.27,1-2.27,2.22S378.2,369.5,380.05,369.5Z"/><path d="M393.89,365.34a4.27,4.27,0,0,0-1.21-.13,5.41,5.41,0,0,0-2.82.66v8.49h-2.47v-11h1.46l.39.88a5.59,5.59,0,0,1,3.48-1.14,5.34,5.34,0,0,1,1.17.13Z"/><path d="M399,365.21a9.36,9.36,0,0,0-3.44.66v-2.13a10,10,0,0,1,3.61-.64c3.61,0,4.45,1.58,4.45,3.91v7.35h-1.46l-.39-.88a5.31,5.31,0,0,1-3.32,1.15c-2.84,0-3.79-1.76-3.79-3.52,0-2.38,1.54-3.39,4-3.59l2.46-.2v-.55C401.1,365.65,400.57,365.21,399,365.21Zm-.16,4.07c-1.1.13-1.74.55-1.74,1.69a1.48,1.48,0,0,0,1.7,1.63,4,4,0,0,0,2.35-.72V369Zm-.64-7,1.28-4.4h3l-2.18,4.4Z"/><path d="M414.3,371.66v-6.21h-4.79v8.91H407v-8.91h-2v-1.52l2-.57V362c0-3.19,2.82-4.42,6.25-4.42a17.5,17.5,0,0,1,3.48.33v2.15a13.92,13.92,0,0,0-3.33-.35c-2.15,0-3.93.55-3.93,2.31v1.32h7.26v8.27c0,.62.22.84.92.84v2a2.42,2.42,0,0,1-.48,0C415.2,374.52,414.3,373.55,414.3,371.66Z"/><path d="M424.66,372.45a7.38,7.38,0,0,0,2.89-.51v2.14a7.74,7.74,0,0,1-3,.55c-3.9,0-5.08-2.34-5.08-5.77s1.18-5.76,5.08-5.76a7.57,7.57,0,0,1,3,.55v2.13a7.39,7.39,0,0,0-2.89-.5c-2.13,0-2.75,1.45-2.75,3.58S422.53,372.45,424.66,372.45Z"/><path d="M433.57,365.21a9.31,9.31,0,0,0-3.43.66v-2.13a10,10,0,0,1,3.61-.64c3.61,0,4.44,1.58,4.44,3.91v7.35h-1.45l-.39-.88a5.33,5.33,0,0,1-3.33,1.15c-2.83,0-3.78-1.76-3.78-3.52,0-2.38,1.54-3.39,4-3.59l2.46-.2v-.55C435.73,365.65,435.2,365.21,433.57,365.21Zm-.15,4.07c-1.1.13-1.74.55-1.74,1.69,0,.84.35,1.63,1.7,1.63a4,4,0,0,0,2.35-.72V369Z"/><path d="M444.48,367.76c3.31.29,4.16,1.28,4.16,3.32s-1.16,3.55-4.68,3.55a10.28,10.28,0,0,1-3.63-.6v-2.11a9.41,9.41,0,0,0,3.27.62c1.77,0,2.62-.4,2.62-1.37,0-.81-.35-1.23-1.82-1.36-3.33-.29-4.14-1.32-4.14-3.21s1.23-3.5,4.47-3.5a8.33,8.33,0,0,1,3.41.55v2.13a9.27,9.27,0,0,0-3.37-.61c-1.3,0-2.11.37-2.11,1.36C442.66,367.3,443.05,367.63,444.48,367.76Z"/><path d="M454.87,368.86c0-3.39,1-5.76,4.88-5.76s4.89,2.37,4.89,5.76-1,5.77-4.89,5.77S454.87,372.25,454.87,368.86Zm7.28,0c0-2.35-.31-3.69-2.4-3.69s-2.4,1.34-2.4,3.69.31,3.7,2.4,3.7S462.15,371.22,462.15,368.86Z"/><path d="M472.89,363.36l2.55,8,2.55-8h2.66l-4.2,11.2h-2l-4.21-11.2Z"/><path d="M486.29,363.1c3.87,0,4.48,2.55,4.48,5.59,0,.37,0,.72,0,1.07h-6.84c0,1.66.63,2.73,2.88,2.73a8.67,8.67,0,0,0,3.5-.66V374a10.43,10.43,0,0,1-3.88.68c-3.67,0-5-2.2-5-5.77S482.7,363.1,486.29,363.1Zm-2.4,4.95h4.4c0-1.5-.09-2.82-2-2.82S484,366.4,483.89,368.05Z"/><path d="M497.86,372.45a7.32,7.32,0,0,0,2.88-.51v2.14a7.71,7.71,0,0,1-3,.55c-3.89,0-5.08-2.34-5.08-5.77s1.19-5.76,5.08-5.76a7.54,7.54,0,0,1,3,.55v2.13a7.34,7.34,0,0,0-2.88-.5c-2.14,0-2.75,1.45-2.75,3.58S495.72,372.45,497.86,372.45Z"/><path d="M509.14,374.47a7,7,0,0,1-1.36.16c-2.44,0-3.87-1.06-3.87-3.43v-5.75h-2v-1.52l2-.57v-2.62l2.46-.7v3.32h3.1v2.09h-3.1v5.46c0,1.1.55,1.63,1.8,1.63a6.17,6.17,0,0,0,1-.09Z"/><path d="M510.88,368.86c0-3.39,1-5.76,4.88-5.76s4.89,2.37,4.89,5.76-1,5.77-4.89,5.77S510.88,372.25,510.88,368.86Zm7.28,0c0-2.35-.31-3.69-2.4-3.69s-2.39,1.34-2.39,3.69.3,3.7,2.39,3.7S518.16,371.22,518.16,368.86Z"/><path d="M529.25,365.34a4.18,4.18,0,0,0-1.21-.13,5.41,5.41,0,0,0-2.82.66v8.49h-2.46v-11h1.45l.4.88a5.54,5.54,0,0,1,3.47-1.14,5.26,5.26,0,0,1,1.17.13Z"/><path d="M535.39,363.1c3.87,0,4.49,2.55,4.49,5.59,0,.37,0,.72,0,1.07H533c0,1.66.64,2.73,2.88,2.73a8.67,8.67,0,0,0,3.5-.66V374a10.34,10.34,0,0,1-3.87.68c-3.68,0-5-2.2-5-5.77S531.8,363.1,535.39,363.1Zm-2.4,4.95h4.4c0-1.5-.09-2.82-2-2.82S533.08,366.4,533,368.05Z"/><path d="M546,367.76c3.3.29,4.16,1.28,4.16,3.32s-1.17,3.55-4.69,3.55a10.32,10.32,0,0,1-3.63-.6v-2.11a9.48,9.48,0,0,0,3.28.62c1.76,0,2.62-.4,2.62-1.37,0-.81-.35-1.23-1.83-1.36-3.32-.29-4.13-1.32-4.13-3.21s1.23-3.5,4.46-3.5a8.3,8.3,0,0,1,3.41.55v2.13a9.21,9.21,0,0,0-3.36-.61c-1.3,0-2.12.37-2.12,1.36C544.14,367.3,544.54,367.63,546,367.76Z"/><path d="M292.45,444.37c0,3.12-1.85,5.26-6.27,5.26a12.6,12.6,0,0,1-4.89-.95v-2.46a11.32,11.32,0,0,0,4.73,1.07c3,0,3.85-1.21,3.85-2.77,0-1.82-.77-2.26-3-2.55-4-.51-5.59-1.58-5.59-4.6,0-2.42,1.37-4.77,5.85-4.77a10.44,10.44,0,0,1,4.47.79v2.4a10.92,10.92,0,0,0-4.33-.86c-2.58,0-3.46,1.06-3.46,2.46,0,1.79,1,2.09,3.19,2.38C290.44,440.23,292.45,441,292.45,444.37Z"/><path d="M294.29,443.86c0-3.39,1-5.76,4.89-5.76s4.88,2.37,4.88,5.76-1,5.77-4.88,5.77S294.29,447.25,294.29,443.86Zm7.29,0c0-2.35-.31-3.69-2.4-3.69s-2.4,1.34-2.4,3.69.31,3.7,2.4,3.7S301.58,446.22,301.58,443.86Z"/><path d="M312.91,449.36v-7.54c0-1.13-.58-1.63-1.74-1.63a5,5,0,0,0-2.53.64v8.53h-2.47v-11h1.45l.4.88a6.33,6.33,0,0,1,3.56-1.14c2.8,0,3.79,1.38,3.79,3.5v7.76Z"/><path d="M319.15,433.5a1.61,1.61,0,1,1-1.6,1.61A1.62,1.62,0,0,1,319.15,433.5Zm-1.23,13.16v-8.3h2.46v8.27c0,.62.22.84.93.84v2a2.42,2.42,0,0,1-.48,0C318.82,449.52,317.92,448.55,317.92,446.66Z"/><path d="M330.39,439v-6.1h2.47v16.5h-1.45l-.4-.88a5.77,5.77,0,0,1-3.56,1.15c-3.22,0-4.4-2.16-4.4-5.77s1.18-5.76,4.4-5.76A5.53,5.53,0,0,1,330.39,439Zm-4.86,4.9c0,2.05.33,3.68,2.49,3.68a4.66,4.66,0,0,0,2.37-.64v-6.07a4.56,4.56,0,0,0-2.37-.64C325.86,440.19,325.53,441.84,325.53,443.86Z"/><path d="M335,443.86c0-3.39,1-5.76,4.88-5.76s4.89,2.37,4.89,5.76-1,5.77-4.89,5.77S335,447.25,335,443.86Zm7.28,0c0-2.35-.31-3.69-2.4-3.69s-2.39,1.34-2.39,3.69.3,3.7,2.39,3.7S342.25,446.22,342.25,443.86Z"/><path d="M350.79,442.76c3.3.29,4.16,1.28,4.16,3.32s-1.17,3.55-4.69,3.55a10.32,10.32,0,0,1-3.63-.6v-2.11a9.43,9.43,0,0,0,3.28.62c1.76,0,2.62-.4,2.62-1.37,0-.81-.36-1.23-1.83-1.36-3.32-.29-4.14-1.32-4.14-3.21s1.23-3.5,4.47-3.5a8.3,8.3,0,0,1,3.41.55v2.13a9.27,9.27,0,0,0-3.37-.61c-1.29,0-2.11.37-2.11,1.36C349,442.3,349.36,442.63,350.79,442.76Z"/><path d="M282,523.36v-16.5h2.46v16.5Z"/><path d="M300,515.6c0-1-.6-1.41-1.57-1.41a4.31,4.31,0,0,0-2.37.68,11.67,11.67,0,0,1,.06,1.21v7.28H293.7V515.6c0-1-.57-1.41-1.56-1.41a4.4,4.4,0,0,0-2.31.64v8.53h-2.47v-11h1.45l.4.88a5.76,5.76,0,0,1,3.32-1.14,3.15,3.15,0,0,1,2.82,1.1,6.24,6.24,0,0,1,3.52-1.1c2.6,0,3.63,1.41,3.63,3.5v7.76H300Z"/><path d="M308.77,514.21a9.26,9.26,0,0,0-3.43.66v-2.13a9.92,9.92,0,0,1,3.61-.64c3.6,0,4.44,1.58,4.44,3.91v7.35h-1.45l-.4-.88a5.31,5.31,0,0,1-3.32,1.15c-2.84,0-3.79-1.76-3.79-3.52,0-2.38,1.54-3.39,4-3.59l2.46-.2v-.55C310.92,514.65,310.4,514.21,308.77,514.21Zm-.15,4.07c-1.11.13-1.74.55-1.74,1.69a1.47,1.47,0,0,0,1.69,1.63,4,4,0,0,0,2.35-.72V518Zm-.64-7,1.27-4.4h3l-2.18,4.4Z"/><path d="M319.92,520.46a7.09,7.09,0,0,1-1.27-.09,1,1,0,0,0-.31.64c0,.37.2.57.66.64l4,.48c2.18.26,2.95,1.25,2.95,3.08,0,2.84-3,3.92-6.18,3.92-2.95,0-5.09-1-5.09-3.21a2.9,2.9,0,0,1,2.29-2.73v0a1.76,1.76,0,0,1-.86-1.52,2.26,2.26,0,0,1,1-1.78,3.8,3.8,0,0,1-1.76-3.59c0-2.51,1.24-4.18,4.6-4.18a7.1,7.1,0,0,1,2,.26h3.8v1.56l-1.56.44a5.34,5.34,0,0,1,.33,1.92C324.52,518.79,323.29,520.46,319.92,520.46Zm-.77,3.23c-1.12.2-2.13.71-2.13,1.76,0,1.24.88,1.72,2.9,1.72s3.63-.57,3.63-1.89c0-.75-.37-1.08-1.27-1.19Zm.77-5.19c1.85,0,2.27-1,2.27-2.22s-.42-2.22-2.27-2.22-2.26,1-2.26,2.22S318.08,518.5,319.92,518.5Z"/><path d="M331.85,512.1c3.87,0,4.48,2.55,4.48,5.59,0,.37,0,.72,0,1.07h-6.84c0,1.66.64,2.73,2.88,2.73a8.67,8.67,0,0,0,3.5-.66V523a10.38,10.38,0,0,1-3.87.68c-3.68,0-5-2.2-5-5.77S328.26,512.1,331.85,512.1Zm-2.4,4.95h4.4c0-1.5-.09-2.82-2-2.82S329.54,515.4,329.45,517.05Z"/><path d="M345.22,523.36v-7.54c0-1.13-.57-1.63-1.74-1.63a5,5,0,0,0-2.53.64v8.53h-2.46v-11h1.45l.4.88a6.31,6.31,0,0,1,3.56-1.14c2.8,0,3.79,1.38,3.79,3.5v7.76Z"/><path d="M354.59,512.1c3.88,0,4.49,2.55,4.49,5.59,0,.37,0,.72,0,1.07H352.2c0,1.66.63,2.73,2.88,2.73a8.7,8.7,0,0,0,3.5-.66V523a10.43,10.43,0,0,1-3.88.68c-3.67,0-5-2.2-5-5.77S351,512.1,354.59,512.1Zm-2.39,4.95h4.4c0-1.5-.09-2.82-2-2.82S352.28,515.4,352.2,517.05Z"/><path d="M365.18,516.76c3.3.29,4.15,1.28,4.15,3.32s-1.16,3.55-4.68,3.55A10.32,10.32,0,0,1,361,523v-2.11a9.43,9.43,0,0,0,3.28.62c1.76,0,2.61-.4,2.61-1.37,0-.81-.35-1.23-1.82-1.36-3.32-.29-4.14-1.32-4.14-3.21s1.23-3.5,4.47-3.5a8.33,8.33,0,0,1,3.41.55v2.13a9.27,9.27,0,0,0-3.37-.61c-1.3,0-2.11.37-2.11,1.36C363.35,516.3,363.75,516.63,365.18,516.76Z"/><path d="M380.44,512.1c3.88,0,4.49,2.55,4.49,5.59,0,.37,0,.72,0,1.07h-6.84c0,1.66.63,2.73,2.88,2.73a8.7,8.7,0,0,0,3.5-.66V523a10.43,10.43,0,0,1-3.88.68c-3.67,0-5-2.2-5-5.77S376.86,512.1,380.44,512.1Zm-2.39,4.95h4.4c0-1.5-.09-2.82-2-2.82S378.13,515.4,378.05,517.05Z"/><path d="M393.82,523.36v-7.54c0-1.13-.57-1.63-1.74-1.63a5,5,0,0,0-2.53.64v8.53h-2.46v-11h1.45l.4.88a6.31,6.31,0,0,1,3.56-1.14c2.79,0,3.78,1.38,3.78,3.5v7.76Z"/><path d="M415.69,515.6c0-1-.6-1.41-1.56-1.41a4.32,4.32,0,0,0-2.38.68,11.59,11.59,0,0,1,.07,1.21v7.28h-2.47V515.6c0-1-.57-1.41-1.56-1.41a4.43,4.43,0,0,0-2.31.64v8.53H403v-11h1.46l.39.88a5.79,5.79,0,0,1,3.33-1.14,3.14,3.14,0,0,1,2.81,1.1,6.24,6.24,0,0,1,3.52-1.1c2.6,0,3.63,1.41,3.63,3.5v7.76h-2.46Z"/><path d="M420.17,517.86c0-3.39,1-5.76,4.89-5.76s4.88,2.37,4.88,5.76-1,5.77-4.88,5.77S420.17,521.25,420.17,517.86Zm7.29,0c0-2.35-.31-3.69-2.4-3.69s-2.4,1.34-2.4,3.69.31,3.7,2.4,3.7S427.46,520.22,427.46,517.86Z"/><path d="M433.57,512.36l2.55,8,2.56-8h2.66l-4.2,11.2h-2l-4.2-11.2Z"/><path d="M444.29,507.5a1.61,1.61,0,1,1-1.61,1.61A1.61,1.61,0,0,1,444.29,507.5Zm-1.24,13.16v-8.3h2.47v8.27c0,.62.22.84.92.84v2a2.42,2.42,0,0,1-.48,0C444,523.52,443.05,522.55,443.05,520.66Z"/><path d="M461.16,515.6c0-1-.59-1.41-1.56-1.41a4.34,4.34,0,0,0-2.38.68,9.38,9.38,0,0,1,.07,1.21v7.28h-2.46V515.6c0-1-.58-1.41-1.57-1.41a4.46,4.46,0,0,0-2.31.64v8.53h-2.46v-11h1.45l.4.88a5.74,5.74,0,0,1,3.32-1.14,3.17,3.17,0,0,1,2.82,1.1,6.24,6.24,0,0,1,3.52-1.1c2.59,0,3.63,1.41,3.63,3.5v7.76h-2.47Z"/><path d="M467.41,507.5a1.61,1.61,0,1,1-1.61,1.61A1.61,1.61,0,0,1,467.41,507.5Zm-1.23,13.16v-8.3h2.46v8.27c0,.62.22.84.92.84v2a2.42,2.42,0,0,1-.48,0C467.08,523.52,466.18,522.55,466.18,520.66Z"/><path d="M476.19,512.1c3.87,0,4.48,2.55,4.48,5.59,0,.37,0,.72,0,1.07h-6.84c0,1.66.64,2.73,2.88,2.73a8.67,8.67,0,0,0,3.5-.66V523a10.38,10.38,0,0,1-3.87.68c-3.68,0-5-2.2-5-5.77S472.6,512.1,476.19,512.1Zm-2.4,4.95h4.4c0-1.5-.09-2.82-2-2.82S473.88,515.4,473.79,517.05Z"/><path d="M489.56,523.36v-7.54c0-1.13-.57-1.63-1.74-1.63a5,5,0,0,0-2.53.64v8.53h-2.46v-11h1.45l.4.88a6.31,6.31,0,0,1,3.56-1.14c2.8,0,3.79,1.38,3.79,3.5v7.76Z"/><path d="M500.67,523.47a7,7,0,0,1-1.36.16c-2.44,0-3.87-1.06-3.87-3.43v-5.75h-2v-1.52l2-.57v-2.62l2.46-.7v3.32H501v2.09h-3.1v5.46c0,1.1.55,1.63,1.8,1.63a6.17,6.17,0,0,0,1-.09Z"/><path d="M502.41,517.86c0-3.39,1-5.76,4.88-5.76s4.89,2.37,4.89,5.76-1,5.77-4.89,5.77S502.41,521.25,502.41,517.86Zm7.28,0c0-2.35-.31-3.69-2.4-3.69s-2.39,1.34-2.39,3.69.3,3.7,2.39,3.7S509.69,520.22,509.69,517.86Z"/><path d="M291.83,76.36h-3.52V59.86h5.61c4.45,0,5.9,2,5.9,5.17,0,2-.57,3.61-2.31,4.45l2.93,6.88h-4.12l-2.22-6.18h-2.27Zm0-9.37h2.4c1.56,0,1.76-1.06,1.76-2s-.2-2-1.76-2h-2.4Z" style="fill:#fff"/><path d="M304.64,72c-.09,1.43.66,1.85,2.37,1.85a8.3,8.3,0,0,0,3.68-.73V75.9a11.28,11.28,0,0,1-4.14.77c-3.63,0-5.39-1.85-5.39-5.81s1.74-5.81,5.15-5.81c4.71,0,5,3.52,4.75,7Zm0-2.16h3.12c.2-1.21-.06-2.18-1.41-2.18C305.17,67.69,304.64,68.49,304.64,69.87Z" style="fill:#fff"/><path d="M314.91,65.36l.59.88a5.12,5.12,0,0,1,3.57-1.19c2.86,0,4.27,1.76,4.27,5.81s-1.41,5.81-4.27,5.81a5.26,5.26,0,0,1-2.75-.7v5.89H312.8V65.36Zm1.41,8a3.07,3.07,0,0,0,1.56.46c1.63,0,2-1.1,2-3s-.35-2.92-2-2.92a3.07,3.07,0,0,0-1.56.46Z" style="fill:#fff"/><path d="M331.81,68.05a5.18,5.18,0,0,0-1.08-.09,4,4,0,0,0-2.33.64v7.76h-3.52v-11H327l.44.79a5.07,5.07,0,0,1,3.39-1.1,2.85,2.85,0,0,1,1,.16Z" style="fill:#fff"/><path d="M336.05,72c-.09,1.43.66,1.85,2.38,1.85a8.25,8.25,0,0,0,3.67-.73V75.9a11.2,11.2,0,0,1-4.13.77c-3.63,0-5.39-1.85-5.39-5.81s1.73-5.81,5.15-5.81c4.7,0,5,3.52,4.75,7Zm0-2.16h3.13c.2-1.21-.07-2.18-1.41-2.18C336.58,67.69,336.05,68.49,336.05,69.87Z" style="fill:#fff"/><path d="M352.44,68.57a9.62,9.62,0,0,0-3.54-.7c-1,0-1.54.22-1.54.77s.37.7,1.1.77c3.48.31,4.45,1.23,4.45,3.52,0,2.11-1.26,3.74-5,3.74a10,10,0,0,1-4-.7V73a10.66,10.66,0,0,0,3.91.83c1.13,0,1.63-.22,1.63-.77s-.37-.7-1.1-.77c-3.47-.3-4.44-1.23-4.44-3.52s1.45-3.74,4.84-3.74a8.65,8.65,0,0,1,3.67.58Z" style="fill:#fff"/><path d="M357.59,72c-.09,1.43.66,1.85,2.38,1.85a8.25,8.25,0,0,0,3.67-.73V75.9a11.25,11.25,0,0,1-4.14.77c-3.63,0-5.39-1.85-5.39-5.81s1.74-5.81,5.15-5.81c4.71,0,5,3.52,4.75,7Zm0-2.16h3.12c.2-1.21-.06-2.18-1.4-2.18S357.59,68.49,357.59,69.87Z" style="fill:#fff"/><path d="M367.86,65.36l.44.79a7.65,7.65,0,0,1,3.83-1.1c3,0,3.85,1.59,3.85,3.7v7.61h-3.52V69.28c0-.82-.28-1.37-1.23-1.37a3.82,3.82,0,0,0-2,.58v7.87h-3.52v-11Z" style="fill:#fff"/><path d="M384.8,76.45a8.52,8.52,0,0,1-1.8.22c-3.08,0-4.25-1.3-4.25-3.89V68.29H377V66l1.78-.49V63.21l3.52-1v3.1H385v2.93h-2.73v4.2c0,.86.33,1.34,1.46,1.34a4.42,4.42,0,0,0,1.07-.13Z" style="fill:#fff"/><path d="M392.11,68.66c0-.5-.35-.77-1.3-.77a11,11,0,0,0-4,.84v-3a11.34,11.34,0,0,1,4-.73c4,0,4.71,1.7,4.71,4.16v7.15h-2.11l-.49-.83a4.82,4.82,0,0,1-3.23,1.14c-2.8,0-3.74-1.85-3.74-3.5,0-3,2.18-3.41,4.16-3.61l2-.19Zm-1.48,2.82c-1,.13-1.38.61-1.38,1.47a1.2,1.2,0,0,0,1.27,1.3,2.23,2.23,0,0,0,1.59-.53V71.28Z" style="fill:#fff"/><path d="M405.37,76.36l-.59-.88a5.08,5.08,0,0,1-3.57,1.19c-2.86,0-4.26-1.76-4.26-5.81s1.4-5.81,4.26-5.81a5.17,5.17,0,0,1,2.76.71v-5.9h3.52v16.5Zm-1.4-8a3.08,3.08,0,0,0-1.57-.47c-1.62,0-2,1.08-2,3s.36,3,2,3a3.13,3.13,0,0,0,1.57-.46Z" style="fill:#fff"/><path d="M409,70.86c0-3.43,1.1-5.81,5.18-5.81s5.17,2.38,5.17,5.81-1.1,5.81-5.17,5.81S409,74.29,409,70.86Zm3.52,0c0,2.2.45,3,1.66,3s1.65-.79,1.65-3-.44-3-1.65-3S412.54,68.66,412.54,70.86Z" style="fill:#fff"/><path d="M427.42,65.36l.59.88a5.1,5.1,0,0,1,3.57-1.19c2.86,0,4.26,1.76,4.26,5.81s-1.4,5.81-4.26,5.81a5.26,5.26,0,0,1-2.75-.7v5.89H425.3V65.36Zm1.41,8a3.07,3.07,0,0,0,1.56.46c1.63,0,2-1.1,2-3s-.35-2.92-2-2.92a3.07,3.07,0,0,0-1.56.46Z" style="fill:#fff"/><path d="M436.94,70.86c0-3.43,1.1-5.81,5.17-5.81s5.17,2.38,5.17,5.81-1.1,5.81-5.17,5.81S436.94,74.29,436.94,70.86Zm3.52,0c0,2.2.44,3,1.65,3s1.65-.79,1.65-3-.44-3-1.65-3S440.46,68.66,440.46,70.86Z" style="fill:#fff"/><path d="M455.75,68.05a5,5,0,0,0-1.08-.09,4.08,4.08,0,0,0-2.33.64v7.76h-3.52v-11h2.11l.45.79a5,5,0,0,1,3.38-1.1,2.81,2.81,0,0,1,1,.16Z" style="fill:#fff"/></svg>