<svg id="Capa_1" data-name="Capa 1" xmlns="http://www.w3.org/2000/svg" viewBox="0 0 250 100" width="170"><title>logo-blanco</title><path d="M133.6,84.68c-5.08,0-6.31,3.57-6.31,8s1.23,8,6.31,8a15,15,0,0,0,4.91-.89V98.07a11.82,11.82,0,0,1-4.91.89c-3.33,0-4-2.32-4.2-5h9.81V92.89C139.39,88.07,138.86,84.68,133.6,84.68Zm-4.2,7.14c0-2.68.7-5.36,4.2-5.36s3.69,2.5,3.69,5.36Z" transform="translate(-20 -7)" style="fill:#fff"/><rect x="73.63" width="1.23" height="100" style="fill:#fff"/><path d="M128.35,58.25V69.32h2.1V58.43c0-2.86-1.58-4.64-5.09-4.64a7.47,7.47,0,0,0-4.55,1.6l-.53-1.25h-1.23V69.32h2.11V56.64a6.42,6.42,0,0,1,4-.89C127.29,55.57,128.35,56.11,128.35,58.25Z" transform="translate(-20 -7)" style="fill:#fff"/><path d="M119.23,38.79c3.5,0,8.41-1.43,8.41-7.68V15.39h-4.73V30.75c0,3-1.93,3.39-3.51,3.39s-3.5-.53-3.5-3.39V15.39H111V31.11C111,37.36,115.9,38.79,119.23,38.79Z" transform="translate(-20 -7)" style="fill:#fff"/><path d="M121.68,85.93a6.89,6.89,0,0,0-4.2-1.25c-4.91,0-6.14,3.57-6.14,8s1.4,8,6.14,8a7.6,7.6,0,0,0,4.73-1.61l.35,1.25h1.23V77.18h-2.11Zm0,11.61a6.94,6.94,0,0,1-4.2.89c-3.51,0-4-3-4-6.07s.53-6.07,4-6.07a8.42,8.42,0,0,1,4.2.89Z" transform="translate(-20 -7)" style="fill:#fff"/><rect x="92.57" y="39.29" width="2.1" height="22.86" style="fill:#fff"/><path d="M150.26,21.64a2.86,2.86,0,1,0-2.81-2.85h0a3,3,0,0,0,2.81,2.85Z" transform="translate(-20 -7)" style="fill:#fff"/><path d="M215.48,50.93a1.69,1.69,0,0,0,1.4-1.61c0-.71-.7-1.25-1.4-1.43a1.52,1.52,0,0,0-.18,3Z" transform="translate(-20 -7)" style="fill:#fff"/><path d="M215,23.07V34.32a3.92,3.92,0,0,0,3.86,4.29h.7a3.73,3.73,0,0,0,1.4-.18V34.5c-1,0-1.23-.36-1.23-.89V23.07Z" transform="translate(-20 -7)" style="fill:#fff"/><path d="M217.41,21.64a2.86,2.86,0,1,0-2.81-2.85h0c-.18,1.42,1.05,2.67,2.81,2.85Z" transform="translate(-20 -7)" style="fill:#fff"/><path d="M228.8,38.79a7.15,7.15,0,0,0,4.91-1.61l.88,1.25h3v-23h-4.74v8.22a6.74,6.74,0,0,0-3.68-1.07c-3.86,0-5.78,2.5-5.78,8S224.94,38.79,228.8,38.79Zm1.58-12.15a3.3,3.3,0,0,1,2.1.72v7a4.88,4.88,0,0,1-2.1.72c-2.28,0-2.63-1.43-2.63-4.11S228.27,26.64,230.38,26.64Z" transform="translate(-20 -7)" style="fill:#fff"/><path d="M245.11,38.79a6.68,6.68,0,0,0,4.38-1.61l.7,1.07H253V28.43c0-3.39-1.05-5.72-6.48-5.72a14,14,0,0,0-5.44,1.08v4.1a14.18,14.18,0,0,1,5.44-1.07c1.22,0,1.75.36,1.75,1.07V29l-2.8.36c-2.63.18-5.61.89-5.61,5a4.46,4.46,0,0,0,4.38,4.82A1,1,0,0,1,245.11,38.79Zm1.22-7.15,1.93-.18v3.4a3,3,0,0,1-2.1.71A1.74,1.74,0,0,1,244.4,34v-.17c0-1.43.53-2,1.93-2.15Z" transform="translate(-20 -7)" style="fill:#fff"/><path d="M212,33.61c0-3.22-1.4-4.47-6.14-4.82-1.05-.18-1.4-.36-1.4-1.08s.7-1.07,2.11-1.07a12.21,12.21,0,0,1,4.9,1.07V23.43a12.18,12.18,0,0,0-5.08-.72c-4.56,0-6.66,2.15-6.66,5.18s1.4,4.47,6.13,4.82c1.06.18,1.41.36,1.41,1.08s-.7,1.07-2.28,1.07a13.89,13.89,0,0,1-5.26-1.07v4.1a11.3,11.3,0,0,0,5.43.9C210.22,38.79,212,36.46,212,33.61Z" transform="translate(-20 -7)" style="fill:#fff"/><path d="M179.54,38.79a14.86,14.86,0,0,0,5.61-1.08V34A12.31,12.31,0,0,1,180.06,35c-2.28,0-3.33-.54-3.15-2.5h8.76c.35-4.83,0-9.65-6.48-9.65-4.74,0-7,2.5-7,8S174.45,38.79,179.54,38.79Zm-.35-12.5c1.75,0,2.1,1.42,1.93,3h-4.39c.18-2,.88-3,2.46-3Z" transform="translate(-20 -7)" style="fill:#fff"/><path d="M148,23.07V34.32a3.92,3.92,0,0,0,3.86,4.29h.7a3.75,3.75,0,0,0,1.4-.18V34.5c-1.05,0-1.23-.36-1.23-.89V23.07Z" transform="translate(-20 -7)" style="fill:#fff"/><polygon points="145.16 31.61 150.6 16.07 145.69 16.07 143.06 25.54 140.43 16.07 135.34 16.07 140.95 31.61 145.16 31.61" style="fill:#fff"/><path d="M193.39,27.54a6.4,6.4,0,0,1,3.15-.9,3.38,3.38,0,0,1,1.41.18V22.89a3.38,3.38,0,0,0-1.41-.18A6.81,6.81,0,0,0,192,24.32l-.52-1.25h-2.81V38.25h4.74Z" transform="translate(-20 -7)" style="fill:#fff"/><path d="M245.81,84.68a10.45,10.45,0,0,0-4.56.89v1.79a12.76,12.76,0,0,1,4.56-.72c2.8,0,3.5.9,3.5,3.22v.89l-4,.18c-3.86.18-5.43,2.14-5.43,4.82s1.4,5,5.26,5a7.48,7.48,0,0,0,4.55-1.61l.53,1.25h1.23V90C251.59,86.64,250.36,84.68,245.81,84.68Zm3.5,12.68a8.25,8.25,0,0,1-4,1.25c-2.8,0-3.16-1.61-3.16-3,0-1.78.88-2.86,3-3l4.2-.36Z" transform="translate(-20 -7)" style="fill:#fff"/><path d="M210.92,68.79V67a12.75,12.75,0,0,1-4.56.71c-3.86,0-4.21-3-4.21-6.07s.35-6.07,4.21-6.07a13.42,13.42,0,0,1,4.56.72V54.5a9.74,9.74,0,0,0-4.56-.71c-5.08,0-6.31,3.57-6.31,8s1.23,7.86,6.31,7.86A13.07,13.07,0,0,0,210.92,68.79Z" transform="translate(-20 -7)" style="fill:#fff"/><path d="M210.74,84.68a7.42,7.42,0,0,0-4.55,1.61L205.66,85h-1.23v15.35h2.11V87.71a6.42,6.42,0,0,1,4-.89c1.93,0,3,.54,3,2.68v11.07h2.1V89.14C215.83,86.29,214.25,84.68,210.74,84.68Z" transform="translate(-20 -7)" style="fill:#fff"/><path d="M195.32,84.68c-5.09,0-6.32,3.57-6.32,8s1.23,8,6.32,8a11.45,11.45,0,0,0,4.9-.89V98.07a11.8,11.8,0,0,1-4.9.89c-3.34,0-4-2.32-4.21-5h9.82V92.89C200.93,88.07,200.4,84.68,195.32,84.68Zm-4.21,7.14c.17-2.68.7-5.36,4.21-5.36s3.5,2.68,3.5,5.36Z" transform="translate(-20 -7)" style="fill:#fff"/><path d="M216.53,66.46V54H214.6V66.11c0,2.5,1.23,3.39,3.33,3.39V67.71C216.88,67.89,216.53,67.54,216.53,66.46Z" transform="translate(-20 -7)" style="fill:#fff"/><path d="M184.62,97.36V77.18h-2.1V97c0,2.5,1.22,3.39,3.33,3.39V98.61C185,98.79,184.62,98.43,184.62,97.36Z" transform="translate(-20 -7)" style="fill:#fff"/><path d="M195.14,68.07l.53,1.25h1.22V58.79c0-3-1.22-5.18-5.61-5.18a10.41,10.41,0,0,0-4.55.89v1.79a12.74,12.74,0,0,1,4.55-.72c2.81,0,3.51.89,3.51,3.22v.89l-4,.18c-3.86.18-5.26,2.14-5.26,4.82s1.4,5,5.26,5A11,11,0,0,0,195.14,68.07Zm-7.71-3.39c0-1.79.87-2.86,3.15-3l4-.35v5.35a8.15,8.15,0,0,1-4,1.25C187.78,67.71,187.43,66.11,187.43,64.68Z" transform="translate(-20 -7)" style="fill:#fff"/><path d="M236.34,80.39a1.49,1.49,0,1,0-1.58,1.43h0A1.55,1.55,0,0,0,236.34,80.39Z" transform="translate(-20 -7)" style="fill:#fff"/><path d="M219.33,92.54c0,4.46,1.23,8,6.32,8a13.59,13.59,0,0,0,4.55-.71V98.07a12.74,12.74,0,0,1-4.55.72c-3.86,0-4.21-3-4.21-6.08s.35-6.07,4.21-6.07a13.36,13.36,0,0,1,4.55.72V85.57a9.85,9.85,0,0,0-4.55-.71C220.56,84.68,219.33,88.07,219.33,92.54Z" transform="translate(-20 -7)" style="fill:#fff"/><path d="M236,97.36V84.86h-2.1V97c0,2.5,1.22,3.39,3.33,3.39V98.61C236.16,98.79,236,98.43,236,97.36Z" transform="translate(-20 -7)" style="fill:#fff"/><path d="M227.05,53.61c-5.09,0-6.31,3.21-6.31,7.85s1.22,7.86,6.31,7.86,6.31-3.21,6.31-7.86S232.31,53.61,227.05,53.61Zm0,14.1c-3.86,0-4.21-2.67-4.21-6.07s.18-6.07,4.21-6.07,4.21,2.68,4.21,6.07-.36,6.07-4.21,6.07Z" transform="translate(-20 -7)" style="fill:#fff"/><polygon points="135.69 90 129.38 70.18 126.93 70.18 134.99 93.39 136.4 93.39 144.46 70.18 142.18 70.18 135.69 90" style="fill:#fff"/><path d="M172.52,84.68a10.41,10.41,0,0,0-4.55.89v1.79a12.74,12.74,0,0,1,4.55-.72c2.81,0,3.51.9,3.51,3.22v.89l-4,.18c-3.86.18-5.44,2.14-5.44,4.82s1.41,5,5.26,5a7.49,7.49,0,0,0,4.56-1.61l.53,1.25h1.22V90C178.13,86.64,177.08,84.68,172.52,84.68ZM176,97.36a8.28,8.28,0,0,1-4,1.25c-2.81,0-3.16-1.61-3.16-3,0-1.78.88-2.86,3-3l4-.36v5.18Z" transform="translate(-20 -7)" style="fill:#fff"/><path d="M168.49,53.79a5.76,5.76,0,0,0-1.75-.18,8.11,8.11,0,0,0-4.91,1.6L161.3,54h-1.05V69.14h2.11V56.46a7.5,7.5,0,0,1,4.38-.89,5.76,5.76,0,0,1,1.75.18Z" transform="translate(-20 -7)" style="fill:#fff"/><path d="M246,58.25V69.32h2.11V58.43c0-2.86-1.58-4.64-5.09-4.64a7.5,7.5,0,0,0-4.56,1.6l-.52-1.25h-1.23V69.32h2.1V56.64a6.45,6.45,0,0,1,4-.89C244.75,55.57,246,56.11,246,58.25Z" transform="translate(-20 -7)" style="fill:#fff"/><path d="M156,68.61V66.82a11.8,11.8,0,0,1-4.9.89c-3.33,0-4-2.32-4.21-5h10V61.64c0-4.46-.52-7.85-5.61-7.85s-6.31,3.57-6.31,8,1.23,7.86,6.31,7.86A15.19,15.19,0,0,0,156,68.61Zm-4.9-13c3.5,0,3.5,2.5,3.5,5.36h-7.71C146.93,58.07,147.63,55.57,151.14,55.57Z" transform="translate(-20 -7)" style="fill:#fff"/><path d="M139.39,22.71a9.17,9.17,0,0,0-5.26,1.61l-.53-1.25h-3V38.25h4.74V27.36a4.83,4.83,0,0,1,2.63-.72c1.22,0,1.75.72,1.75,2v9.82h4.73V27.89C144.65,24.86,143.6,22.71,139.39,22.71Z" transform="translate(-20 -7)" style="fill:#fff"/><path d="M137.81,49.14l-2.1.54v4.11l-3,.89v.89h3v9.82c0,3,2.28,4.11,4.73,4.11a3.73,3.73,0,0,0,1.4-.18V67.54h-1.22c-1.93,0-3-.72-3-2.68V55.39h4.73v-1.6h-4.56Z" transform="translate(-20 -7)" style="fill:#fff"/><path d="M256.85,53.61a10.45,10.45,0,0,0-4.56.89v1.79a12.79,12.79,0,0,1,4.56-.72c2.81,0,3.51.89,3.51,3.22v.89l-4,.18c-3.86.18-5.26,2.14-5.26,4.82,0,2.5,1.4,5,5.26,5a8.59,8.59,0,0,0,4.55-1.43l.35,1.25h1.23V58.79C262.46,55.75,261.41,53.61,256.85,53.61Zm3.51,12.85a8.18,8.18,0,0,1-4,1.25c-2.81,0-3.16-1.6-3.16-3,0-1.79.88-2.86,3.16-3l4-.35Z" transform="translate(-20 -7)" style="fill:#fff"/><path d="M177.08,53.61a7.13,7.13,0,0,0-4.56,1.6L172,54H171V69.32h2.1V56.64a6.44,6.44,0,0,1,4-.89c1.93,0,3,.54,3,2.68V69.5h2.11V58.43C182.17,55.39,180.76,53.61,177.08,53.61Z" transform="translate(-20 -7)" style="fill:#fff"/><path d="M269.82,38.43v-23h-4.73v8.22a6.74,6.74,0,0,0-3.68-1.07c-3.86,0-5.79,2.5-5.79,8s1.93,8,5.79,8A7.11,7.11,0,0,0,266.32,37l.87,1.25h2.63Zm-4.73-4.29a4.88,4.88,0,0,1-2.1.72c-2.28,0-2.63-1.43-2.63-4.11s.52-4.11,2.63-4.11a3,3,0,0,1,2.1.72Z" transform="translate(-20 -7)" style="fill:#fff"/><path d="M268.77,66.46V46.29h-2.1V66.11c0,2.5,1.05,3.39,3.33,3.39V67.71C269.12,67.89,268.77,67.54,268.77,66.46Z" transform="translate(-20 -7)" style="fill:#fff"/><polygon points="11.4 22.68 7.54 8.57 0 8.57 8.41 31.79 14.55 31.79 22.79 8.57 15.43 8.57 11.4 22.68" style="fill:#fff"/><rect x="24.89" width="7.19" height="5.71" style="fill:#fff"/><path d="M69.61,31.82a10.53,10.53,0,0,1-4,1.25c-1.93,0-2.45-1.07-2.45-2.86V15.57H55.94V31.29c0,4.28,1.75,7.67,7.89,7.67a14.51,14.51,0,0,0,7.71-2.32l.88,1.61h4.21V15.57H69.44V31.82Z" transform="translate(-20 -7)" style="fill:#fff"/><path d="M52.08,31.29V15.57H44.89V32.36c0,4.46,3,6.43,6.84,6.43a8.41,8.41,0,0,0,2.11-.18v-5.9C52.43,32.71,52.08,32.18,52.08,31.29Z" transform="translate(-20 -7)" style="fill:#fff"/></svg>